<?xml version="1.0" encoding="UTF-8"?>
<svg version="1.1" viewBox="0 0 1600 1600" width="1280" height="1280" xmlns="http://www.w3.org/2000/svg" fill="#3B6D38">
<path transform="translate(178,266)" d="m0 0 6 1 32 14 30 14 79 38 16 9 16 10 14 12 10 10 12 16 6 10 11 22 5 13 2 3 7-1 16-7 80-28 35-13 39-14 21-7 31-11 29-10 40-14 7-2h7l3 5 12 36 22 62 20 57 15 43 17 49 14 39v2l19-5 30-11 47-17 49-18 21-9h5l3 4 15 44 13 35 17 49 17 48 19 54 13 36 9 26 17 48 16 46 9 25 9 27 1 6 17-4 25-9 27-9 28-10 27-10 29-10 28-10 29-10 37-13 22-8 5 1 3 7 7 25 14 40 5 15v5l-5 4-35 12-27 10-37 13-53 19-37 13-108 38-30 11-118 41-64 23-21 7-64 23-45 16-18 6-3 2-1 24-3 14-8 21-8 16-8 12-10 13-10 11-17 13-18 10-12 5-30 8-13 2h-29l-19-3-19-5-16-7-11-6-11-8-12-11-9-9-10-13-9-15-8-16-6-18-4-20-1-11v-17l3-22 5-19 9-21 7-11 10-13 18-20 2-5-3-10-7-19-11-31-13-37-10-27-7-20-15-43-10-28-9-26-13-37-10-28-7-20-34-96-13-37-17-48-13-36-10-29-11-32-14-40-11-29-5-10-9-10-10-7-44-22-28-13-35-17-20-9-23-11-4-5 10-20 9-17 13-31 5-13zm486 192-24 8-27 10-48 17-37 13-36 13-36 11-7 4 1 6 5 12 10 30 14 38 15 45 14 39 8 24 3 5 7 1 29-10 73-27 37-13 36-12 28-10 6-4 1-3-4-13-15-42-16-47-13-37-19-57zm274 235-36 14-34 12-37 13-35 12-34 12-19 7-75 26-28 10-33 12-36 12-17 6 2 9 10 30 17 46 11 33 10 28 17 48 11 31 13 38 6 7 4 1 20 2 18 4 21 8 17 9 12 9 10 8 10 10 4 3 5-1 24-8 25-9 100-36 72-25 41-14 25-9 7-3 1-3-13-37-12-34-17-48-13-36-10-29-30-86-18-52-7-20-3-6-3 1-1-5zm4 2m-306 505-10 3-10 6-6 5-6 10-5 16v16l4 13 8 16 5 5 9 5 14 4 13 1 16-4 12-7 8-9 6-12 3-11-1-14-4-15-6-12-6-7-16-8-6-1z"/>
</svg>
