<?xml version="1.0" encoding="UTF-8"?>
<svg version="1.1" viewBox="0 0 1600 1600" width="1280" height="1280" xmlns="http://www.w3.org/2000/svg" fill="#3B6D38">
<path transform="translate(496,261)" d="m0 0h8l16 8 24 13 13 9 7 9 1 11-3 8-4 5-5-1-16-8-25-14-7-4h-7l-9 4-18 10-27 16-34 20-13 8-24 14-26 15-24 13-15 9-18 10-11 7-18 10-15 9-48 28-23 13-22 13-15 9-11 7-5 4 14 8 25 13 22 13 18 10 14 8 20 12 24 13 24 14 26 15 13 8 19 11 17 10 98 56 24 14 17 10 49 28 18 10 23 13 28 16 14 9 18 10 12 8v-127l-1-15h-3l-18 10-5 2-9-1-12-5-19-10-28-15-29-16-15-9-14-10-7-9-1-5v-39l1-18v-41l2-9 6-8 21-13 19-12 15-9 22-13 23-13 10-5h10l12 4 16 8 24 13 18 11 14 8 11 7 12 6 9 7 5 6 3 10 1 6v37l16-8 27-16 42-24 13-8 2-3-2-1v-2l-5-2-21-11-40-24-29-17-28-17-22-13-16-9-13-7-5-7 1-7 4-10 4-6 9 1 23 12 18 11 28 16 18 10 46 27 22 13 27 15 12 7 9-1 16-8 17-10 32-19 17-10 15-9 70-41 15-9 6-3 8 1 12 5 18 10 10 6 23 13 22 12 15 9 14 8 21 13 17 10 20 11 21 12 7 6 7 11 5 16 21 81 10 39 8 29 7 25 6 9 12 14 22 22 2 1v2h2v2h2l6 7 8 7 11 12 7 6 7 8 42 42 7 8 8 8 6 7 8 7 14 15 6 9 2 7v165l-1 15-4 9-6 7-14 8-22 13-17 10-24 14-21 12-48 28-25 14-27 16-19 11-14 8-19 11-23 13-28 17-17 10-21 13-22 12-21 12-22 12-13 3-10-1-11-6-19-14-5-4-3-1-1 5-7 11-10 13-11 10-17 9-11 3-6 1h-15l-15-3-24-10-15-9-12-9-15-14-9-11-10-13-7-10-10-18-10-21-10-30-6-25-4-8-15-7-16-8-22-13-20-12-17-10-15-9-24-14-30-16-16-9-22-14-33-22-3 9-5 10-9 14-7 9-16 10-6 3-15 4h-13l-14-2-18-6-21-11-11-8-11-9-8-7v-2h-2l-9-11-11-14-11-17-8-15-10-24-8-26-10-36-1-4-10-3-6 2-8 11-10 14-10 10-13 9-15 6-4 1h-23l-17-4-12-5-17-9-16-12-15-14-18-22-13-19-9-16-10-23-6-19-6-27-3-16-3-4-19-6-17-9-7-8-3-8-1-7-1-33v-154l-1-8 4-8 4-5 9-6 27-15 26-15 28-17 53-31 26-15 24-14 52-30 24-14 22-13 15-9 22-13 26-15 35-20 22-13zm584 143-17 9-28 17-24 14-25 14-22 13-42 24-22 13-18 11-24 14-28 16-15 9-24 14-20 12-24 14-21 11-12 5-6 6v2l18 12 26 15 24 14 17 9 10 6 21 12 13 8 12 7 13 8 4 2 7-1 36-20 58-34 15-9 39-23 25-14 25-15 28-16 27-16 23-13 24-14 25-14 17-10 20-11 11-8-3-3-9-6-11-6-17-10-39-23-19-11-24-14-16-9-17-10-5-1h-3zm-457 65-15 5-15 8-11 7-17 11-10 7-7 5 4 4 14 9 16 9 20 12 11 7 12 4 8-1 8-4 13-8 11-7 16-9 11-6 8-7-2-4-9-7-15-11-25-15-16-8zm643 54-10 4-20 11-22 13-19 11-23 13-15 9-26 15-20 12-12 6-13 8-14 8-29 17-14 8-24 14-21 12-22 13-19 11-16 9-24 14-9 5-6 6 1 8 11 42 6 23 11 42 12 44 4 10h10l10-5 10-7 16-9 25-15 29-17 19-11 20-12 16-9 17-10 15-9 34-20 24-14 28-16 17-10 25-14 42-24 19-11 6-4 1-6-7-25-14-52-12-47-9-35-4-6zm-734 18-2 9-2 27v21l3 7 9 8 10 6 8 4 13 8 20 11 6 5 13 3 1-5 1-25 1-11v-17l-3-7-13-8-27-15-17-10-16-9zm-427 2v157l2 12 2 5 3 1h12l5-4 8-15 8-10 11-10 10-6 11-5 7-2h24l16 4 25 12 17 12 11 9 13 13 11 14 11 16 9 16 11 23 9 25 7 27 4 12 6 8 7 5 4 1 6-8 10-16 5-7 16-14 16-8 6-2 18-1 17 3 16 6 20 11 16 12 10 8 9 10 11 13 10 15 11 19 8 17 8 21 5 21 5 23 5 5 15 10 14 8 24 15 9 6v-166l-5-6-25-14-21-12-26-15-27-16-15-9-24-14-18-10-16-9-26-15-27-15-24-14-58-34-27-16-18-10-27-16-25-14-10-6-26-15-24-14-24-13-27-16-18-10zm606 0-14 9-20 12-14 8-11 6-9 6-2 16-1 12v11l1 23 5 6 4 1 5-3 4-30 4-9 4-3 12-5 30-18 12-8 2-4-2-15-4-13-2-2zm-5 77m-15 32-2 9v7l1 9-1 105v154l-1 53v52l3 5 17 10 18 10 25 14 21 12 24 14 17 11 8 6 4-1 6-8 4-11 12-19 3-3v-2l4-2 7-6 16-7 12-2 17 1 21 5 16 8 15 9 13 10 13 12 12 13 13 18 11 18 13 28 8 27 6 31 5 14 5 5 12 5 5 3h3v-2l3 1 2-1 1-90v-48l-5-10-11-13-14-15-79-79-7-8-18-18-1-2h-2l-2-4-13-13-7-8-9-11-4-8-7-21-17-59-13-50-12-47-6-16-7-6-14-8-20-12-19-11-18-11-15-8-10-6-18-10-17-10-26-13zm-499 42-12 3-8 6-7 8-5 11-3 16v18l3 20 4 16 7 18 5 13 9 16 8 12 11 13 14 14 11 9 13 10 15 8 13 4h17l6-2 2-2 6-4 8-8 6-12 1-4v-37l-5-25-6-18-11-26-6-10-8-11-12-14-17-17-11-8-13-8-13-6-11-3zm1140 26-16 8-23 13-17 10-10 6-11 6-16 10-10 5-17 10-24 14-21 12-10 6-21 12-13 8-11 6-26 15-24 14-20 12-24 14-26 15-16 9-20 10-2 3v5l6 9 14 14 7 8 70 70 7 8 13 13 7 8 7 7 7 8 5 4 5 1 11-4 18-10 20-11 21-12 26-15 40-24 17-10 26-15 28-16 29-17 18-11 21-12 19-11 26-15 17-10 24-13 15-9 5-4-2-4-5-6-8-7-37-37-7-8-21-21-7-8-28-28-7-8-12-12-9-11-5-4zm-898 117-10 3-8 6-8 11-4 8-4 13v14l4 20 6 19 7 21 13 27 8 12 13 16 19 19 13 10 18 10 14 5 5 1h10l8-3 9-7 5-4 6-9 4-14 1-14v-15l-5-25-7-21-10-23-8-14-12-16-11-13-8-7-5-5-9-7-18-11-15-6-5-1zm1056 71-14 6-16 9-28 15-19 11-13 7-15 10-39 23-11 6-16 9-38 22-15 9-23 13-20 12-22 13-15 9-22 12-22 13-21 12-5 5-2 5-1 11v79l-1 18v31l9-2 15-8 17-10 15-9 28-15 19-11 11-7 16-9 17-10 19-11 18-10 10-6 21-12 13-8 26-15 34-20 18-11 22-12 16-8 10-6 12-9 7-5 6-10 2-10v-117l-1-8zm-598 184-11 3-9 6-5 6-6 12-3 17v21l4 23 5 16 7 18 8 17 12 19 12 13 12 12 11 9 12 9 10 6 13 6 8 2h15l9-5 12-11 4-7 3-12 1-7v-22l-4-24-7-24-8-19-8-16-8-12-12-13-7-8-7-7-11-8-15-10-14-7-13-3z"/>
<path transform="translate(360,403)" d="m0 0h8l18 8 24 14 14 8 21 13 7 5 7 8 4 8 3 14 1 42v19l-5 12-7 8-9 5-10 7-19 11-20 11-14 8-17 6-5 1-11-5-23-11-26-14-21-14-13-12-4-10-2-21v-17l1-26 1-13 3-7 8-10 15-9 15-10 22-12 14-8 15-7zm-3 36-13 5-11 8-14 12-3 5 3 6 23 13 12 7 12 2h6l13-7 28-16-1-6-4-6-15-12-19-10-4-1zm-62 59-3 7v21l4 10 9 10 14 9 22 12h7l3-3v-15l-2-17-3-7-7-6-22-12-20-9zm131 1-16 8-19 12-9 8-2 4-1 7v22l1 6 9-1 18-10 19-12 6-5 3-5 1-10-1-12-4-10-2-2z"/>
<path transform="translate(723,711)" d="m0 0 10 1 22 8 18 10 16 8 24 14 14 11 5 8 7 21 14 53 11 41 5 27v12l-7 3-10-2-14-5-22-12-27-15-23-13-22-12-14-9-8-8-2-5-1-26v-76l1-21 2-12zm29 46-2 6-1 57 2 12 3 6 14 9 26 14 21 13 10 5h3l-1-8-6-25-7-29-5-15-7-13-9-10-11-9-19-11-4-2z"/>
<path transform="translate(919,1144)" d="m0 0h12l12 4 11 7 8 8 10 13 9 19 2 6 1 7v14l-2 11-4 8-5 5-5 4-10 4h-16l-10-3-8-5-10-9-9-13-6-10-5-14-2-10v-18l4-13 8-9 11-5zm5 40v6h1v-6zm18 1m-16 9 1 4zm1 4 1 2zm1 3 1 4 2 3 1-5zm22 1m2 5 1 2zm-21 1 1 2zm1 2 1 2zm3 1m18 0 1 2zm-20 1 1 4 2-1zm3 4 1 3v-3z"/>
<path transform="translate(220,747)" d="m0 0 19 2 12 6 14 14 10 15 6 13 3 11 1 19-2 10-6 9-10 8-9 4h-13l-9-2-10-6-12-11-9-13-7-14-5-14-1-6v-19l3-10 4-6 5-4 8-4zm20 40-1 4h5l-1-4zm4 4 1 4 1-2zm-20 4 1 2zm3 0m18 1v2h2v-2zm-2 1m-17 2 1 3zm17 1m5 0 1 2zm-4 1m2 1 1 5 2 1 1 3h2l-1-6-2-3zm-16 1 1 2zm15 1m-17 1 1 2zm3 0-2 4 5 9h2l1 4 4 1v-2h-3l2-5-2-1v-3h-2l-1-4-2-3zm17 3m4 3 1 3zm-14 3m15 1m-14 3v2h2v-2zm4 3-2 3 3 1 1-2z"/>
<path transform="translate(464,889)" d="m0 0h15l10 4 11 8 12 12 9 14 6 16 2 11v18l-2 8-6 9-9 6-10 4h-14l-10-3-10-6-11-11-9-14-6-13-4-13-2-11v-8l3-12 4-6 7-7 10-5zm17 35m1 1m-1 1m-15 1m20 2m-1 1m3 2m-20 1 1 2zm21 0 1 2zm-19 2-1 3 2 2 1-5zm20 0m1 2 1 2zm-18 2m19 0m-21 1 1 2zm22 1m-19 0-2 1 1 5 7 14 4 3h2l-1-5h-3l1-3h-2l-2-7-4-8zm20 2 1 3zm1 4-2 3 2 2 1-5zm1 3v5h1v-5zm-13 5m14 1 1 3zm-12 1m1 8m11 0m-7 1v2h5l-4-2z"/>
<path transform="translate(1190,1104)" d="m0 0h7l8 4 7 8 8 12 3 10-1 18-4 16-9 17-6 7h-2v2h-2v2h-2l-2 4-6 5-18 8-8 2h-9l-9-4-5-5-4-5-5-11-2-8v-16l4-18 6-11 11-13 8-7 14-10 11-5zm2 34m-3 1-10 5-3 2v2l-4 2-7 8-4 11-1 9 9 1 3-3 1 2 7 1 4-8-2-4 3-1 1-6-3-1-1 2-3-5 2-1-1-3h2v-2h2l1-3 5-2 4-1v-3h-2v-2zm0 8v2h-2v8l4 3 3-9-1-4v2z"/>
<path transform="translate(1449,956)" d="m0 0 10 2 10 6 7 9 4 8 4 17-2 4-2 14-5 13-10 14-10 9-14 10-11 5-4 1h-14l-8-3-8-8-5-11-2-9v-10l3-20 6-14 10-14 4-5 17-12 13-5zm-4 35-6 2-11 10-6 10-2 6v12l3 2 7-1 1-2 5-1 4-5 2-4v-2l5-2 5-8v-11l-1-4zm-1 26m-1 1 1 2z"/>
<path transform="translate(1346,1050)" d="m0 0h8l4 3 3 10-1 7-5 6-18 11-18 10-21 12-15 9-19 7-7-1-5-5-1-3v-7l5-9 12-9 17-10 10-6 12-6 15-9 17-8z"/>
<path transform="translate(1168,623)" d="m0 0h8l8 3 16 8 33 17 11 8 5 8 1 3v12l-4 5-5 1-13-4-33-16-15-8-8-6-9-7-6-7-1-7 3-6z"/>
<path transform="translate(585,312)" d="m0 0 9 1 11 5 14 8 16 10 14 9 5 5 3 6-1 7-4 5-7 4h-7l-13-6-26-15-13-8-10-9-1-4 5-15z"/>
<path transform="translate(724,888)" d="m0 0 8 1 18 6 18 10 9 7 1 4-5 12-5 4-9 1-15-6-13-7-7-8-3-7v-12z"/>
<path transform="translate(1216,589)" d="m0 0h9l11 4 10 7 5 9 1 4v8l-8 5h-10l-10-3-14-9-6-7-2-8 2-5 8-4z"/>
<path transform="translate(1433,1011)" d="m0 0 4 1h3v4l-5 2-1-3-2-1z"/>
<path transform="translate(1175,1167)" d="m0 0 2 2-3 3-3-1 2-3 2 1z"/>
<path transform="translate(1438,1006)" d="m0 0h2l1 5-4-4z"/>
<path transform="translate(1432,1017)" d="m0 0 2 1-2 3h-2v-3z"/>
<path transform="translate(1434,1008)" d="m0 0 3 1v2l-3-1z"/>
<path transform="translate(1191,1152)" d="m0 0 1 2-2 2v-3z"/>
<path transform="translate(1433,1020)" d="m0 0 1 3h-2z"/>
<path transform="translate(1177,1165)" d="m0 0 2 2-2 1z"/>
<path transform="translate(1439,1020)" d="m0 0 2 1-2 1z"/>
<path transform="translate(1429,1016)" d="m0 0 2 1-2 1z"/>
<path transform="translate(1178,1177)" d="m0 0 2 1z"/>
<path transform="translate(1189,1149)" d="m0 0"/>
<path transform="translate(1437,1021)" d="m0 0"/>
<path transform="translate(1436,1018)" d="m0 0"/>
<path transform="translate(248,805)" d="m0 0 2 1z"/>
<path transform="translate(1007,1289)" d="m0 0"/>
<path transform="translate(1182,1171)" d="m0 0"/>
<path transform="translate(1180,1165)" d="m0 0"/>
<path transform="translate(1179,1164)" d="m0 0"/>
<path transform="translate(1183,1163)" d="m0 0"/>
<path transform="translate(1180,1161)" d="m0 0"/>
<path transform="translate(1188,1142)" d="m0 0"/>
<path transform="translate(1425,1019)" d="m0 0"/>
<path transform="translate(1434,1018)" d="m0 0"/>
<path transform="translate(1437,1017)" d="m0 0"/>
<path transform="translate(1445,1015)" d="m0 0"/>
<path transform="translate(1430,1011)" d="m0 0"/>
<path transform="translate(1432,1009)" d="m0 0"/>
<path transform="translate(1441,1006)" d="m0 0"/>
<path transform="translate(484,962)" d="m0 0"/>
<path transform="translate(476,948)" d="m0 0"/>
<path transform="translate(473,943)" d="m0 0"/>
<path transform="translate(234,813)" d="m0 0"/>
<path transform="translate(231,810)" d="m0 0"/>
<path transform="translate(232,806)" d="m0 0"/>
<path transform="translate(242,789)" d="m0 0"/>
<path transform="translate(430,504)" d="m0 0"/>
<path transform="translate(428,500)" d="m0 0"/>
</svg>
