<?xml version="1.0" encoding="UTF-8"?>
<svg version="1.1" viewBox="0 0 2048 1146" width="1280" height="1280" xmlns="http://www.w3.org/2000/svg">
<path transform="translate(0)" d="m0 0h2048v1146h-2048z"/>
<path transform="translate(1092,25)" d="m0 0 55 1 47 1 140 2 5 12 18 52 17 48 20 57 15 41 15 40 19 51 27 72 26 70 27 72 11 29 21 52v2h-23l-91-2-99-1-7-24-13-42-12-37-14-39-7-25-14-54-5-18-4-20-9-33-32-96-14-43-11-34-3 4-13 26-10 19-14 27-12 22-13 24-13 23-10 19-4 8-8 18-13 27-13 28-13 27-15 33-14 29-13 25-9 17-4 9-8-1-30-8-48-17-38-15-18-8-24-12-19-10-9-5 2-5 28-42 29-44 22-33 17-26 29-44 10-15 29-44 28-42 16-25 12-18 14-25 13-23 16-29z" fill="#438A3A"/>
<path transform="translate(872,16)" d="m0 0h83l81 3 10 1v3l-14 24-17 29-16 27-17 29-15 25-13 22-1 1-44-1-64-2-16-1v20l-6 182-1 19-12 20-15 24-6 9-4-1-9-6-24-24-9-11-13-17-11-17-10-18-10-21-10-28-6-22-5-26-3-26-1-16v-36l2-24 5-21 6-16 8-15 10-14 12-13 12-11 17-12 17-10 19-9 22-8 28-7 28-4z" fill="#FEFEFE"/>
<path transform="translate(496,886)" d="m0 0h30l20 3 20 6 17 9 9 7 10 9 10 14 6 13 4 14 1 7v27l-4 20-6 15-9 14-9 10-10 9-15 9-15 6-21 5-16 2h-27l-21-3-19-5-17-8-14-10-12-12-9-14-5-13-3-14-1-9v-15l2-16 5-17 9-17 11-13 9-8 14-9 18-8 18-5z" fill="#FEFEFE"/>
<path transform="translate(429,22)" d="m0 0h296v29l-29 14-19 12-16 13-12 11-13 13-9 11-12 15-13 18-17 26-41 1h-92l-19-1-4-1z" fill="#FEFEFE"/>
<path transform="translate(1365,889)" d="m0 0h116l20 3 16 6 11 7 7 6 9 12 7 14 5 17 2 17v12l-2 18-5 19-5 12-8 14-12 13-12 9-15 7-16 4-18 2h-109l1-18 3-40 3-66z" fill="#FEFEFE"/>
<path transform="translate(1127,889)" d="m0 0h72l6 9 13 24 13 23 16 29 15 27 6 11 2-28 3-79 1-16h55v12l-3 40-6 111-1 29h-72l-13-23-17-28-15-26-12-21-12-22-2 36-3 84h-56l1-18 2-27 5-94z" fill="#FEFEFE"/>
<path transform="translate(1254,692)" d="m0 0 21 1 16 3 15 5 11 6 9 7 8 7 9 13 5 10 4 16 1 18-2 17-5 17-9 16-12 13-13 9-12 6-17 5-12 2-11 1h-16l-17-2-19-5-12-5-11-7-13-12-9-14-5-14-2-10v-27l4-18 8-16 8-11 11-10 15-9 15-6 16-4z" fill="#FEFEFE"/>
<path transform="translate(1591,889)" d="m0 0h157l1 1-2 41h-96l-1 23-1 9h81v13l-2 29-1 1h-81v13l-1 21h29l46-1 22-1-2 37-1 6h-158v-10l4-48 3-56 2-58v-19z" fill="#FEFEFE"/>
<path transform="translate(948,896)" d="m0 0h76l5 12 18 48 30 76 14 35 5 12v2h-66l-13-38-6-18-9-33-18-52v-3h-2l-3 9-12 24-10 19-13 29-12 25-19 38h-68l2-5 12-20 14-25 16-28 28-50 12-21 13-24z" fill="#438A3A"/>
<path transform="translate(672,696)" d="m0 0h62l5 8 13 24 13 23 17 32 9 17v2h2v-18l2-47 1-33 1-8h47l-3 40-5 93-1 31-5 1h-55l-6-9-11-20-16-27-14-25-12-22-1 8-2 45-1 38-1 12h-47l5-85 2-41z" fill="#FEFEFE"/>
<path transform="translate(1424,695)" d="m0 0h51l16 2 14 5 9 7 6 7 5 12 1 7v9l-3 14-6 11-8 8-14 8-7 2 10 25 17 37 4 10v2h-54l-3-7-12-38-17-47 3-1h18l10-3 7-5 4-8v-10l-4-7-6-3-5-1-33-1-1 29-2 60-1 41-1 1h-50v-9l3-33 2-36 1-28 1-59z" fill="#FEFEFE"/>
<path transform="translate(343,695)" d="m0 0h51l16 2 14 5 11 8 7 11 3 12v13l-3 12-5 10-10 10-17 9h-3l12 29 17 37 2 5v3h-54l-3-7-9-30-19-53v-3h21l11-4 6-5 3-7v-11l-4-6-10-4-34-1v14l-2 48-2 69h-51l1-16 3-38 2-44 1-44 1-23z" fill="#FEFEFE"/>
<path transform="translate(708,886)" d="m0 0h32l25 3 9 2 1 1 3 38v7l-10-3-17-4-7-1h-15l-10 3-6 4-2 4v6l5 8 8 8 17 13 11 9 10 9 10 12 5 10 2 8v12l-3 12-7 13-10 10-14 8-16 5-15 2h-25l-33-4-11-2-1-1-4-47 10 3 15 5 17 3h17l11-3 5-4 1-2v-9l-6-9-42-36-8-8-7-11-4-11v-19l5-14 8-11 10-8 15-7 13-3z" fill="#FEFEFE"/>
<path transform="translate(1834,886)" d="m0 0h32l25 3 10 2 4 46-11-3-16-4-8-1h-15l-10 3-5 3-3 7 3 9 8 9 28 22 10 9 8 8 7 11 4 11v17l-4 12-6 10-6 7-10 7-13 6-17 4-8 1h-25l-27-3-18-3-1-5-3-36v-7l9 3 20 6 12 2h17l9-2 7-4 2-4-1-9-4-6-12-11-11-9-11-10-11-9-11-13-5-10-2-9v-13l3-12 7-12 9-9 14-8 13-4z" fill="#FEFEFE"/>
<path transform="translate(1709,696)" d="m0 0h134l-2 36-81-1-1 23-1 5h69l-1 24-1 12-51 1h-18l-1 29h20l62-1-2 35-1 2h-133l-1-2 4-47 3-60z" fill="#FEFEFE"/>
<path transform="translate(530,695)" d="m0 0h62l14 40 13 37 17 47 11 30 4 11-1 1h-53l-9-29-5-15-10-39-14-44-1-1-12 26-10 22-14 34-13 28-8 18h-55l1-5 12-22 20-39 10-19 18-35 12-23z" fill="#FEFEFE"/>
<path transform="translate(234,889)" d="m0 0h62v12l-4 64-3 56v18h87v12l-2 27-1 3h-151l6-72 3-54 2-65z" fill="#FEFEFE"/>
<path transform="translate(1056,695)" d="m0 0h47l13 3 9 5 9 8 5 8 4 13v21l-4 13-4 8-8 10-10 7-12 5-15 3h-15l-8-1-4-16-4-17h15l8-2 6-4 4-6 1-3v-9l-3-6-4-3-3-1h-27l-1 7-2 48-2 75h-48l-1-4 3-45 2-39 2-77z" fill="#FEFEFE"/>
<path transform="translate(926,692)" d="m0 0 24 1 21 3 3 1 1 3 2 27v9l-5-1-15-4-6-1h-17l-8 3-5 5v7l4 6 9 9 13 10 11 9 9 9 7 10 4 11v13l-4 13-7 10-9 8-12 6-16 4-10 1h-14l-21-2-18-3-3-1-3-34v-7l20 7 18 3h8l11-2 6-4 1-2v-7l-4-7-12-11-11-9-16-15-8-9-5-11-1-4v-15l4-12 8-11 11-8 13-5 10-2z" fill="#FEFEFE"/>
<path transform="translate(1918,692)" d="m0 0h31l22 3 5 1 3 32v8l-21-6-7-1h-14l-11 4-3 4v8l6 8 14 12 13 10 10 9 9 12 4 9 1 5v10l-3 11-4 8-9 10-9 6-12 5-17 3h-23l-24-3-12-2-1-1-3-32v-8l5 1 18 6 12 2h14l10-3 4-3 1-8-3-6-9-9-8-7-14-12-12-11-7-10-4-11v-16l4-12 8-11 10-7 11-5z" fill="#FEFEFE"/>
<path transform="translate(1538,696)" d="m0 0h154l-2 36h-23l-28-1v10l-3 52-2 67-1 1h-52l1-19 3-42 3-69-13 1h-38v-15z" fill="#FEFEFE"/>
<path transform="translate(501,928)" d="m0 0h15l13 3 10 5 10 9 6 8 5 12 2 11v13l-3 14-5 12-8 11-8 7-12 6-12 3h-16l-12-3-14-7-9-8-6-10-4-11-1-5v-20l4-15 7-13 7-8 10-7 12-5z" fill="#000100"/>
<path transform="translate(225,695)" d="m0 0h59v44h-71v82l-12-6-10-8-11-11-10-15-6-14-3-13v-14l4-13 6-9 8-8 12-7 16-5z" fill="#FEFEFE"/>
<path transform="translate(1423,930)" d="m0 0h36l13 3 10 6 7 8 5 11 2 10v22l-4 17-6 12-9 10-9 6-15 4-10 1h-20l-6-1 1-31 3-67 1-10z" fill="#000100"/>
<path transform="translate(1247,729)" d="m0 0h18l12 4 10 7 6 7 5 10 2 7 1 15-3 16-6 12-9 10-10 6-8 3-6 1h-11l-12-3-12-6-8-8-6-12-2-7v-21l4-13 5-9 8-9 10-6 7-3z" fill="#000100"/>
<path transform="translate(874,573)" d="m0 0 7 1 24 13 23 13 29 16 27 15 17 10 2 4h-26l-92-3-14-1-12-6-15-13-14-13 2-4 14-11 13-10z" fill="#F4F406"/>
<path transform="translate(771,495)" d="m0 0h6l19 13 13 10 14 10 18 13 7 5-1 3-26 14-22 12-6 1-6-4-13-13-8-7-13-13-8-7-15-15 3-3z" fill="#F4F406"/>
<path transform="translate(566,495)" d="m0 0 5 5 12 14 9 11 11 13 9 11 11 13 9 11 12 14 8 10v1h-20l-65-2-4-1v-29l2-61z" fill="#FEFEFE"/>
<path transform="translate(91,695)" d="m0 0h93v8l-19 10-12 11-9 10-4 5h-49z" fill="#FEFEFE"/>
<path transform="translate(697,418)" d="m0 0h7l8 7 8 10 13 16 22 28-4 3-22 10-7 2-5-3-8-10-14-20-24-34-1-3z" fill="#F4F406"/>
<path transform="translate(644,320)" d="m0 0 8 1 4 5 8 17 11 25 12 26v3l-14 4h-11l-5-5-5-11-13-38-7-23 7-3z" fill="#F4F406"/>
<path transform="translate(630,227)" d="m0 0 4 2 3 3 5 41 2 18v6l-3 1h-10l-3-4-1-9-1-28v-24z" fill="#F4F406"/>
<path transform="translate(225,848)" d="m0 0 6 1 35 16 2 2-42-1-8-4-5-4 1-3z" fill="#F4F406"/>
<path transform="translate(194,827)" d="m0 0 5 1 20 12-3 3-11 5-5-1-13-10-5-5z" fill="#F4F406"/>
<path transform="translate(162,835)" d="m0 0 7 6 15 14 4 5h-26z" fill="#FEFEFE"/>
<path transform="translate(639,155)" d="m0 0 2 1-4 49-2 7-3 3-3-4 1-10 8-44z" fill="#F4F406"/>
<path transform="translate(171,806)" d="m0 0 4 2 14 14-2 2-9 2-9-9-6-7v-2z" fill="#F4F406"/>
<path transform="translate(153,780)" d="m0 0 4 1 10 18-1 2h-8l-5-10-3-10z" fill="#F4F406"/>
<path transform="translate(148,756)" d="m0 0 3 1 2 17-5-1z" fill="#F4F406"/>
</svg>
