<?xml version="1.0" encoding="UTF-8"?>
<svg version="1.1" viewBox="0 0 2048 1213" width="1280" height="1280" xmlns="http://www.w3.org/2000/svg">
<path transform="translate(1194,28)" d="m0 0h20l164 4 59 1 188 2 4 9 2 7h2l5 10 36 108 15 44 22 66 12 35 6 19 3 7 12 37 11 31 12 34 13 36 7 20 10 28 13 36 10 28 9 25 12 33 4 12 16 45 9 24 5 15 11 31 10 28 7 19 10 29 13 36 15 42 14 39 15 42 13 36 30 78 8 22v6l-3 3-4 1h-30l-10-1-92-2-217-2-10-1-4-3v-2l-12-1-8-29-12-44-19-63-16-50-25-75-3-11-7-23-17-67-18-73-3-11-4-25-12-45-7-27-12-37-20-64-20-63-20-64-24-77-2-4-6 7-12 24-10 22-10 19-32 64-22 43-9 16-8 16-8 15-8 16-11 20-8 16-16 31-7 18-13 29-14 31-15 33-10 23-7 15-9 20-6 13-11 24-6 14-4 8-11 26-8 19-7 15-8 17-8 16-15 29-10 19-8 17-5 10-3 2h-10l-42-11-29-10-26-10-28-10-43-17-31-13-23-10-16-8-29-15-23-13-32-17-15-9-4-2 1-5 11-17 48-76 14-22 168-266 14-22 132-209 8-13 16-30 12-22 14-26 12-22 15-29 10-19 15-29z" fill="#0C5404"/>
<path transform="translate(827,10)" d="m0 0h69l71 2 129 5 17 2-2 6-2 4 4 3v8l-12 22-12 21-14 25-12 21-11 19-6 11-15 27-14 24-7 13-10 17-6 11-25 45-8 13-4 7-6 5-3 1h-33l-73-2-12-1-69-2h-21l-5 3-3 4-1 4-3 98-1 21-3 108-1 13-4 150-2 11-8 16-8 14-9 15-16 27-9 15-5 6-2 1-9-1-15-9-35-35-7-8-13-15-11-14-12-16-20-30-13-22-14-26-12-26-12-30-12-36-10-38-7-35-5-33-4-42-1-19v-72l2-30 4-26 6-25 9-25 12-25 10-17 10-14 9-11 9-10 7-8 8-8 8-7 17-14 20-14 21-13 27-14 17-8 29-11 26-8 30-7 35-6 28-3z"/>
<path transform="translate(11,22)" d="m0 0h528l1 13 4 4 1 4v33l-3 7-3 1v2l-16 8-25 13-9 6-16 10-11 8-14 11-13 11-8 7-8 8h-2l-2 4-5 4-7 8-7 7-7 8-11 13-14 18-12 16-10 14-11 16-15 23-14 22-6 7-6 3-79 1h-148l-25-1-9-2-5-4-14-2v-300z"/>
<path transform="translate(804,1049)" d="m0 0h9l25 14 24 14 26 15 24 14 26 15 72 42 17 10 6 5 3 5v2l-5 1-1 3-2 1h-26l-66-2-20-1-93-3-17-3-16-8-14-9-10-9-8-7-17-16-17-17 4-5 10-8 48-39 13-10z" fill="#F3F306"/>
<path transform="translate(623,903)" d="m0 0 8 1 10 6 18 14 19 14 18 14 16 12 47 36 1 3-2 1 1 7-4 5-17 10-14 8-17 10-23 13-7 3h-8l-10-5-5-3-12-12-8-7-79-79-7-8-2-3 22-12 45-23z" fill="#F3F306"/>
<path transform="translate(255,904)" d="m0 0 5 5 12 14 11 14 14 17 13 17 11 13 10 13 13 16 11 14 13 16 11 14 13 16 11 14 6 8v2l-3 2-5 3h-15l-72-2-45-2-5-3-1-3h-9l-5-1v-28l5-158z" fill="#010101"/>
<path transform="translate(491,760)" d="m0 0h9l6 3 10 11 13 17 11 14 14 18 15 20 11 14 13 17v9l-4 5-16 8-20 9-3 1h-10l-5-3-8-3-8-9-15-22-17-25-25-37-22-33v-2l15-4z" fill="#F3F306"/>
<path transform="translate(1107,29)" d="m0 0 6 3v8l-12 22-12 21-14 25-12 21-11 19-6 11-15 27-14 24-7 13-10 17-6 11-25 45-8 13-4 7-6 5-3 1h-33l-73-2-12-1-69-2h-21l-5 3-3 4-1 4-3 98-1 21-3 108-1 13-4 150-2 11-8 16-8 14-9 15-16 27-9 15-5 6-2 1-9-1 7-12 17-28 17-29 9-15 10-17 13-409 1-2h31l189 6 6-10 26-46 14-25 12-21 14-25 14-24 13-24 12-21 14-25 12-21 14-25 10-18z" fill="#5C5C5B"/>
<path transform="translate(392,578)" d="m0 0h12l7 4 7 10 9 17 8 20 6 13 11 26 11 25 10 24 1 9-4 4-12 4-5 1h-13l-18-9-7-10-10-26-15-46-17-57 1-4z" fill="#F3F306"/>
<path transform="translate(1385,274)" d="m0 0 2 3 4 12-2 4-6 8-11 22-10 22-10 19-32 64-22 43-9 16-8 16-8 15-8 16-11 20-8 16-16 31-7 18-13 29-14 31-15 33-10 23-7 15-9 20-6 13-11 24-6 14-4 8-11 26-8 19-7 15-8 17-8 16-15 29-10 19-8 17-5 10-3 2h-10l-42-11-29-10-26-10-28-10-43-17-9-4 3-1 38 15 70 26 12 3 36 10 20 5h3l6-16 12-25 15-29 10-19 17-36 18-42 18-40 57-126 27-60 3-10 12-23 10-19 48-92 10-19 18-35 36-72 11-23z" fill="#5C5C5C"/>
<path transform="translate(539,35)" d="m0 0 5 4 1 4v33l-3 7-3 1v2l-16 8-25 13-9 6-16 10-11 8-14 11-13 11-8 7-8 8h-2l-2 4-5 4-7 8-7 7-7 8-11 13-14 18-12 16-10 14-11 16-15 23-14 22-6 7-6 3-79 1h-148l-25-1-9-2-5-5 33 1h146l85-1 12-20 16-25 15-22 12-17 16-21 11-14 12-14 11-12 7-8 18-18 8-7 14-12 20-15 18-12 15-9 24-13 20-9h2z" fill="#5A5A5A"/>
<path transform="translate(370,403)" d="m0 0 8 6 4 5 1 9 3 1 3 8 9 81 1 10v14l-4 5-2 1h-8l-5-3v-2h-7l-5-3-3-8-2-26-1-32v-53l4-8z" fill="#F3F306"/>
<path transform="translate(1632,51)" d="m0 0 3 3 7 19 36 108 13 38 12 36 13 38 13 40 3 7 12 37 11 31 12 34 13 36 7 20 10 28 13 36 10 28 9 25 12 33 4 12 16 45 9 24 5 15 11 31 10 28 7 19 10 29 13 36 15 42 14 39 15 42 13 36 1 5-3-3-7-16-22-62-2-5v-6h-2l-20-56-19-53-22-62-19-53-95-266-7-19v-6h-2l-22-62-14-41-26-77-16-48-14-41-19-57-14-41-7-21z" fill="#70706F"/>
<path transform="translate(1991,1069)" d="m0 0 2 3 20 52 8 22v6l-3 3-4 1h-30l-10-1-92-2-217-2-10-1-4-3v-2h-5v-1l153 1 66 1 155 4-7-19-13-34v-3h-2l-5-15v-3h-2l-1-6z" fill="#5E5E5D"/>
<path transform="translate(796,1175)" d="m0 0 26 2 79 3 126 4 4 2-1 3-2 1h-26l-66-2-20-1-93-3-17-3-10-5z" fill="#616160"/>
<path transform="translate(1632,51)" d="m0 0 3 3 7 19 36 108 13 38 12 36 13 38 13 40 3 7 12 37 11 31 3 8v8l-2-2-20-57-15-45-14-41-21-63-14-41-19-57-14-41-7-21z" fill="#676766"/>
<path transform="translate(385,270)" d="m0 0 4 1-2 31-5 63-2 10-6 8-4-4-3-5 1-12 12-69 4-22z" fill="#F2F208"/>
<path transform="translate(756 1e3)" d="m0 0 2 2 1 5-4 5-17 10-14 8-17 10-23 13-7 3h-8l-7-4v-1l9-3 24-13 24-14 28-16z" fill="#5C5C5C"/>
<path transform="translate(263,1092)" d="m0 0h27l93 3h26v2l-3 2-5 3h-15l-72-2-45-2-5-3z" fill="#5E5E5E"/>
<path transform="translate(383,423)" d="m0 0 3 1 3 8 9 81 1 10v14l-4 5-2 1h-8l-5-3 1-3 13-2-4-41-7-64z" fill="#666"/>
<path transform="translate(1908,845)" d="m0 0h3l10 28 11 31 10 28 14 38 4 12 12 33 7 20 5 13-1 3-8-16-23-65-2-5v-6h-2l-20-56-19-53z" fill="#70706F"/>
<path transform="translate(421,600)" d="m0 0 3 3 6 13 5 13 6 13 11 26 11 25 10 24 1 9-4 4-12 4-5 1h-13l-6-3-1-2 20-4 17-5h2l-18-41-22-51-11-27z" fill="#60605F"/>
<path transform="translate(591,876)" d="m0 0 2 2-1 7-5 4-16 8-21 9h-10l-5-3 2-2 25-11z" fill="#5D5D5D"/>
<path transform="translate(1850,682)" d="m0 0 4 3 7 20 9 24 5 15 11 31 10 28 7 19 7 20v3l-3-1-19-53-20-56-18-50z" fill="#70706F"/>
<path transform="translate(1632,51)" d="m0 0 3 3 7 19 34 102-1 3v-2l-3-1-19-57-14-41-7-21z" fill="#686868"/>
<path transform="translate(1720,309)" d="m0 0 2 3 7 21 3 7 12 37 11 31 3 8v8l-2-2-20-57-15-45-2-7z" fill="#696968"/>
<path transform="translate(1812,571)" d="m0 0 3 4 14 40 12 33 4 12 8 22-1 3-1-3h-2l-22-62-14-39v-5z" fill="#737372"/>
<path transform="translate(421,600)" d="m0 0 3 3 6 13 5 13 6 13 11 26 11 25 10 24 1 9-2 1-1-8-17-39-22-51-11-27z" fill="#9B9B99"/>
<path transform="translate(1950,962)" d="m0 0h3l7 20 12 33 7 20 5 13-1 3-8-16-23-65-2-5z" fill="#737372"/>
<path transform="translate(1991,1069)" d="m0 0 2 3 20 52 8 22v6l-3 3-4 1h-30l-10-1v-1h38l5-1 1-2h2l-7-20-13-34v-3h-2l-5-15v-3h-2l-1-6z" fill="#9B9B99"/>
<path transform="translate(1889,786)" d="m0 0 2 2 9 26 10 28v3l-3-1-19-53z" fill="#696969"/>
<path transform="translate(1659,127)" d="m0 0 2 3 15 45-1 3v-2l-3-1-14-42z" fill="#6F6F6E"/>
<path transform="translate(1795,529)" d="m0 0h3l11 30 3 9 1 7 1 4-3-3-16-45z" fill="#717171"/>
<path transform="translate(1812,571)" d="m0 0 3 4 7 20 5 15v3l-3-1-11-31v-5z" fill="#6D6D6C"/>
<path transform="translate(1970,1013)" d="m0 0 2 2 7 20 5 13-1 3-8-16-5-14z" fill="#7A7A79"/>
<path transform="translate(1908,845)" d="m0 0h3l10 28 1 5-5-5-9-26z" fill="#727271"/>
<path transform="translate(1940,935)" d="m0 0h3l9 25v2h-2v-3h-2l-8-22z" fill="#717170"/>
<path transform="translate(1843,658)" d="m0 0 3 4 7 20-1 3-1-3h-2l-7-21z" fill="#737373"/>
<path transform="translate(1879,764)" d="m0 0h3l7 19v7l-3-4-7-20z" fill="#666"/>
<path transform="translate(1659,127)" d="m0 0 2 3 6 18v4l-3-1-6-18z" fill="#6D6D6D"/>
<path transform="translate(1919,875)" d="m0 0 2 1v2h2l6 18v5l-3-3-7-20z" fill="#6B6B6B"/>
<path transform="translate(1788,503)" d="m0 0 2 3 7 20v3l-3-1-6-17z" fill="#727271"/>
<path transform="translate(1778,482)" d="m0 0h2v2h2l6 17v7l-2-2z" fill="#676766"/>
<path transform="translate(1749,400)" d="m0 0h3l6 16v8l-2-2-7-20z" fill="#676766"/>
<path transform="translate(1872,739)" d="m0 0 2 2 7 20v3l-3-1-5-14z" fill="#747473"/>
<path transform="translate(1889,786)" d="m0 0 2 2 6 18v3l-3-1-6-18z" fill="#717170"/>
<path transform="translate(1864,722)" d="m0 0h3l5 14 1 10-2-2-7-20z" fill="#666665"/>
<path transform="translate(1834,637)" d="m0 0 3 4v2h2l4 11v7l-2-1-7-20z" fill="#646464"/>
<path transform="translate(1950,962)" d="m0 0h3l5 15v6l-2-1-6-17z" fill="#676767"/>
<path transform="translate(1850,682)" d="m0 0 4 3 4 12v7l-2-2-6-17z" fill="#686867"/>
<path transform="translate(1812,571)" d="m0 0 3 4 5 15v3l-3-1-4-11v-5z" fill="#767675"/>
<path transform="translate(421,600)" d="m0 0 3 3 6 13 2 7-2 1-9-22z" fill="#989896"/>
<path transform="translate(1991,1069)" d="m0 0 2 3 7 18-1 4-2-2-4-13v-3h-2l-1-6z" fill="#838381"/>
<path transform="translate(1774,464)" d="m0 0 2 3 5 14-1 3v-2h-2l-4-10z" fill="#777776"/>
<path transform="translate(1935,920)" d="m0 0h3l4 12v3l-3-1-4-11z" fill="#6B6B6A"/>
<path transform="translate(1903,831)" d="m0 0h3l4 11v3l-3-1-4-11z" fill="#6B6B6A"/>
<path transform="translate(1027,1185)" d="m0 0 4 1-1 3-2 1h-26v-1l24-1z" fill="#9B9B99"/>
<path transform="translate(1965 1e3)" d="m0 0 2 1v2h2l2 12-2-1-4-11z" fill="#5E5E5D"/>
<path transform="translate(1919,875)" d="m0 0 2 1v2h2l2 9-3-1-3-8z" fill="#676767"/>
<path transform="translate(1808,565)" d="m0 0h3l2 10 1 4-3-3z" fill="#616161"/>
<path transform="translate(1795,529)" d="m0 0h3l2 5v6l-3-3z" fill="#666"/>
<path transform="translate(383,365)" d="m0 0 3 1v6l-2 3h-2v-6z" fill="#9B9B99"/>
<path transform="translate(1785,494)" d="m0 0 2 4 1 3v7l-2-2-2-8z" fill="#696968"/>
</svg>
