<?xml version="1.0" encoding="UTF-8"?>
<svg version="1.1" viewBox="0 0 1600 1600" width="1280" height="1280" xmlns="http://www.w3.org/2000/svg" fill="#3B6D38">
<path transform="translate(642,199)" d="m0 0h12l24 7 32 10 33 10 117 38 35 11 21 7 43 14 23 7 31 10 49 16 32 10 144 46 40 13 14 7 6 6 1 3v450l-1 29-4 2-15 1h-26l-3-7-1-3-1-91v-353l-11-3-44-14-47-15-43-14-41-13-72-23-204-65-36-12-64-20-31-10-5-1-25 7-55 18-102 32-21 7-57 18-56 18-57 18-43 14-139 44-35 10-9 4-1 5v41l20-5 36-12 50-16 54-18 48-15 36-12 41-13 45-14 50-16 33-11 43-14 60-19 36-12 34-11 4-1h16l22 6 32 10 31 10 72 24 46 14 33 11 130 42 42 13 21 7 16 5 31 10 48 15 22 7 14 5 6 7 1 3v11l-3 16-5 10-3 2h-7l-32-8-62-20-57-18-44-14-24-8-57-18-66-21-36-11-33-11-108-35-24-8-14-3-144 46-29 9-101 32-38 12-27 9-73 23-31 10-38 12-21 7-22 7-49 15-23 8-1 1v806h96l1-583 1-47 3-12 4-4 6-2 8-1 19-1 61-1h832l39 1 19 3 5 4 3 8 1 20v127l-1 31-6 3-20 2h-17l-4-4-1-4-1-24v-116l-213 1h-661l-25 1v349l-1 272-2 15-2 7-6 4-8 1h-145l-16-1-11-4-9-6v-978l15-7 14-6 72-24 43-14 225-72 48-15 30-10 43-14 26-8 21-7 26-8 46-15 20-7z"/>
<path transform="translate(971,923)" d="m0 0h366l21 2 8 3 5 5 2 8 1 64v19h94l15 1 6 3 7 8 14 20 29 44 21 31 21 32 10 16 7 10 2 4v118l-16 10-8 3-14-2-5-2-4-5-2-6-2-20-1-65-2-14-6-16-6-10-5-5-5-2-46-1-18-3-8-7-2-9v-12l2-10 7-6 10-3 13-3 7-1-6-14-9-14-6-10-4-5-6-3-26-1-58-1 1 111 1 28 18-8 16-4h31l16 3 13 5 16 10 12 11 11 15 9 17 4 13 2 11v32l-4 14-8 16-7 11-8 10-7 7-13 9-12 6-19 6-13 2h-19l-20-4-13-5-10-6-13-11-13-14-8-10-5-1-6 1h-105l-10-2-6-3-3-3-2-9v-15l3-10 5-4 6-2 11-1 29-1h71l-1-20-1-143v-99l1-62h-426l1 5 1 43h261l129 1 5 3 1 4v32l-1 7-5 3-5 1-144 1h-183l-58-1-1 226 44-2 4-1 5-24 9-22 8-12 8-10 10-9 15-10 17-7 15-3h26l19 3 15 6 11 7 13 11 5 5 9 11 10 19 5 17 1 7v28l-3 14-7 16-9 13-9 11h-2l-2 4-16 12-12 6-17 5-11 2h-24l-20-4-13-5-11-7-14-12-11-13-5-6h-80l-15-2-10-3-4-5-2-5-2-17-1-187v-102l1-74 1-17 2-9 8-3 9-1 36-1zm78 326-13 2-14 7-10 9-6 9-5 14v18l5 15 7 10 9 8 14 6 8 2h15l16-8 8-6 6-7 7-14 2-7v-13l-4-15-6-11-5-6-11-7-11-5zm369 1-11 3-12 7-9 8-6 9-4 12v11l2 14 4 10 7 9 4 5 16 8 12 3h13l9-4 10-6 9-8 7-11 2-5 2-18-3-16-7-13-4-5-10-7-12-5-5-1z"/>
<path transform="translate(286,849)" d="m0 0h100l27 1 13 3 12 6 9 7 10 9 8 11 5 10 4 16 1 15v121l-1 41-2 14-4 6-5 5-5 7 2 10 7 11 7 7 1 2v151l-1 27-3 20-4 11-8 11-9 10-9 7-9 4-14 4-18 2-36 1h-123l-7-2-8-7-1-7 1-24 2-7 5-2 54-1 113-1 16-2 3-2 2-24 1-60v-71l-1-24-3-12-1-1-7-1-24-1h-36l-1 23-3 40-4 6-2 2-12 1-17-2-8-4-2-5-1-6v-55l-58-3-12-2-4-4-1-2v-31l2-6 6-2 21-1 53-1 100-1 11-2 1-1 1-7 1-17v-159l-2-7-7-2-10-1-52-1v20l-3 38-4 10-4 3-12 1-17-2-6-4-2-2-2-13-1-20v-17l1-14h-22l-33-2-15-2-4-2-1-2v-18l1-13 3-8 4-2 11-1z"/>
<path transform="translate(586,473)" d="m0 0h162l50 1 16 2 5 3 3 8 2 13 1 29v35l-1 38-2 13-4 5-7 2-10 1-40 1h-251l-22-1-8-3-3-7-3-18v-95l2-15 3-6 3-3 16-2zm66 51-128 1-1 30v18l5 2h56l189-1 1-1v-48l-14-1z"/>
<path transform="translate(563,1098)" d="m0 0h66l51 1 19 3 10 4 12 9 11 11 10 14 5 13 2 20 1 30v85l-1 36-1 14-4 16-5 9-9 12-10 10-14 7-15 4-16 2-21 1-44 1h-58l-32-1-12-3-6-7-2-5v-18l3-10 5-6 20-1 145-1 17-3 4-2 1-4 2-32v-120l-1-22-3-11-6-2-8-1-20-1h-33l-4 57-2 9-4 4-7 2h-10l-14-2-6-3-3-4-1-5v-59l-7 1-34-1-22-2-8-3-3-7v-25l3-9 4-3 8-1z"/>
</svg>
