<?xml version="1.0" encoding="UTF-8"?>
<svg version="1.1" xmlns="http://www.w3.org/2000/svg" width="100" height="100">
<path d="M0 0 C10.06866931 7.25087772 17.72756886 16.79280068 20.3125 29.25 C21.70668558 45.91292143 19.18676434 58.15716957 8.640625 71.33984375 C2.22382219 78.48333577 -8.09918475 84.61508614 -17.80297852 85.42700195 C-34.86566428 85.88895149 -46.79126814 83.44661518 -59.8125 71.75 C-70.07212814 61.14084545 -72.17133125 48.37416494 -71.96484375 34.2578125 C-71.50503107 21.94581333 -64.87448062 11.59167312 -56.171875 3.17578125 C-39.79726859 -9.51711334 -17.57628553 -10.86641977 0 0 Z M-59.3046875 14.18359375 C-66.3717392 24.74424446 -67.93601941 35.84283836 -66.6875 48.25 C-64.05330406 58.63917796 -57.65044739 68.25211082 -48.6875 74.25 C-37.34051592 80.13833676 -25.71857745 82.53984696 -13.11328125 79.34375 C-0.29860322 74.224442 7.90519989 66.27791871 13.33203125 53.703125 C16.96257095 44.6195436 16.82304519 32.72551536 13.1875 23.625 C7.40354382 11.86212283 -0.61316566 4.32647893 -12.6875 -0.75 C-30.07906363 -5.7269926 -47.96402394 0.3331112 -59.3046875 14.18359375 Z " fill="#000000" transform="translate(75.6875,10.75)"/>
<path d="M0 0 C1.2323495 0.71844442 2.45800117 1.44853387 3.67578125 2.19140625 C7.76264077 4.08392403 12.26507368 3.78695039 16.6328125 3.09765625 C18.26817424 2.09127979 19.90402927 1.08323708 21.4921875 0.00390625 C27.2320399 -2.42610425 35.16271567 -1.94896973 41.0546875 -0.171875 C44.85872027 1.81955241 46.75197281 4.34136609 48.6328125 8.09765625 C49.48409525 12.94138908 49.78575597 17.93355524 47.42578125 22.36328125 C44.06818694 26.4093949 40.97148773 28.83474635 35.64453125 29.43359375 C24.02275278 29.57015989 24.02275278 29.57015989 18.6328125 25.09765625 C14.77859179 19.92488634 13.92192705 15.47263205 13.6328125 9.09765625 C11.6528125 9.09765625 9.6728125 9.09765625 7.6328125 9.09765625 C7.52324219 9.83371094 7.41367187 10.56976563 7.30078125 11.328125 C5.42888795 22.84863904 5.42888795 22.84863904 -0.2421875 27.41015625 C-5.55475154 30.18537627 -11.56326772 29.83810478 -17.3671875 29.09765625 C-20.9296875 27.41015625 -20.9296875 27.41015625 -23.3671875 25.09765625 C-24.1509375 24.43765625 -24.9346875 23.77765625 -25.7421875 23.09765625 C-28.35873179 18.26711294 -28.07961068 13.46263896 -27.3671875 8.09765625 C-22.773021 -1.9741703 -9.70980748 -3.70126325 0 0 Z M-18.3671875 5.09765625 C-20.83529344 7.24933835 -22.10878736 8.78168028 -22.74609375 12.02734375 C-22.96917111 15.84124707 -22.59895078 17.72203989 -20.5546875 21.03515625 C-17.23277184 24.16724816 -14.55854978 24.21702459 -10.1796875 24.16015625 C-9.27863281 24.15113281 -8.37757812 24.14210938 -7.44921875 24.1328125 C-6.41861328 24.11541016 -6.41861328 24.11541016 -5.3671875 24.09765625 C-5.3671875 23.76765625 -5.3671875 23.43765625 -5.3671875 23.09765625 C-7.6771875 22.43765625 -9.9871875 21.77765625 -12.3671875 21.09765625 C-12.46484375 14.9453125 -12.46484375 14.9453125 -12.3671875 13.09765625 C-11.3671875 12.09765625 -11.3671875 12.09765625 -9.5546875 11.96484375 C-8.8328125 11.96742187 -8.1109375 11.97 -7.3671875 11.97265625 C-6.6453125 11.97007813 -5.9234375 11.9675 -5.1796875 11.96484375 C-3.3671875 12.09765625 -3.3671875 12.09765625 -2.3671875 13.09765625 C-1.99958019 15.42583589 -1.66477169 17.75949475 -1.3671875 20.09765625 C1.19698633 17.53348242 1.89068537 15.56849148 2.0078125 12.03515625 C1.99128001 8.28531096 1.99128001 8.28531096 0.40625 6.43359375 C-4.92291827 2.41911017 -12.5252325 2.41035695 -18.3671875 5.09765625 Z M20.89453125 6.43359375 C19.06140735 8.85127419 19.23048704 11.21083814 19.328125 14.15625 C19.73642076 16.75782681 20.78889804 18.25374179 22.6328125 20.09765625 C22.7771875 18.96328125 22.9215625 17.82890625 23.0703125 16.66015625 C23.6328125 13.09765625 23.6328125 13.09765625 24.6328125 12.09765625 C26.4453125 11.96484375 26.4453125 11.96484375 28.6328125 11.97265625 C29.3546875 11.97007813 30.0765625 11.9675 30.8203125 11.96484375 C32.6328125 12.09765625 32.6328125 12.09765625 33.6328125 13.09765625 C33.77396411 15.76824476 33.67528357 18.42197863 33.6328125 21.09765625 C31.3228125 21.75765625 29.0128125 22.41765625 26.6328125 23.09765625 C26.6328125 23.42765625 26.6328125 23.75765625 26.6328125 24.09765625 C34.67821576 24.67855719 34.67821576 24.67855719 41.6328125 21.09765625 C44.1048602 17.3895847 44.28780252 14.39707791 43.6328125 10.09765625 C41.58612654 6.17484149 40.08090197 5.2723352 35.9453125 3.66015625 C30.81852673 2.64247967 25.12578234 3.18171089 20.89453125 6.43359375 Z " fill="#000000" transform="translate(39.3671875,32.90234375)"/>
<path d="M0 0 C1.69962891 -0.01836914 1.69962891 -0.01836914 3.43359375 -0.03710938 C9.99388416 -0.04851197 15.78503123 0.48472707 22.125 2.1875 C22.125 3.5075 22.125 4.8275 22.125 6.1875 C7.605 6.1875 -6.915 6.1875 -21.875 6.1875 C-22.205 5.5275 -22.535 4.8675 -22.875 4.1875 C-21.10118754 1.78763608 -20.01236644 1.21607832 -17.05859375 0.6015625 C-11.39910553 -0.09682376 -5.69310598 0.00321644 0 0 Z " fill="#000000" transform="translate(49.875,65.8125)"/>
</svg>
