<?xml version="1.0" encoding="UTF-8"?>
<svg version="1.1" viewBox="0 0 1600 1600" width="1280" height="1280" xmlns="http://www.w3.org/2000/svg">
<path transform="translate(359,349)" d="m0 0h868l33 2 28 4 19 5 21 8 18 10 9 7 13 11 10 11 11 16 8 16 5 11 6 21 3 18 2 25 1 21v520l-2 39-3 25-5 25-8 19-9 17-12 17-14 15-13 10-14 8-16 7-21 6-21 3-28 2-25 1h-853l-34-2-23-3-21-5-16-6-16-8-11-7-11-9-15-15-12-17-9-17-7-18-5-18-3-16-2-20-1-21v-547l2-23 5-28 5-19 8-19 8-14 10-14 11-12 10-9 18-12 16-8 14-5 23-5 19-2zm-4 100 3 5 19 19 8 7 27 27 8 7 25 25 8 7 105 105h2l1 3 5 5h2l1 3 6 5 5 6 8 7 58 58h2l2 4 8 7 25 25 3 4h2l2 4h2l2 4 28 28h2l2 4 8 7 11 10 11 8 21 11 17 4h14l15-5 19-10 13-10 10-8 12-12 7-6 4-4v-2l4-2 66-66 8-7 138-138 2-1v-2h2l7-8 7-6v-2h2v-2h2l6-7 2-1v-2h2v-2l4-2 10-11 2-1v-2l4-2 4-4v-2h2v-2h2v-2l4-2 8-8v-2h2v-2h2v-2l4-2 21-21 8-7 17-17 8-7 4-5v-2l-34-1zm-69 69v50l-1 72v404l1 35 5-1 11-9 10-10v-2h2v-2l4-2v-2l3-1 7-8 34-34 7-6 7-8 9-8 7-8 154-154 8-7 10-9 6-7-2-5-9-10-18-18-8-7-49-49h-2l-2-4-4-4h-2l-2-4-7-6-106-106-8-7-61-61zm1023 5-9 6-29 29v2l-4 2-29 29-8 7-89 89-4 3v2l-4 2v2l-4 2v2l-3 1-63 63-8 7-3 3v2l-4 2v2l-4 2-11 9-5 5 1 5 13 13h2l2 4h2v2l5 5 3 1v2l8 7 138 138h2l2 4 12 12h2l2 4 10 10 8 7 46 46 9 11 10 9 7 7h1v-555l-1-5zm-351 345-9 7-16 16-8 7-9 9-14 11-18 13-16 9-15 7-19 6-22 3h-30l-16-2-21-6-16-8-14-8-14-10-13-11-11-9-26-26-8-7-5 1-10 9-9 9-8 7-31 31v2l-4 2-198 198-10 8-7 8-2 4 2 1 11 1 274 1h377l181-1h26l9-1-3-6-49-49-1-2h-2l-2-4h-2l-2-4h-2v-2h-2v-2l-7-6-180-180-1-2h-2l-2-4h-2l-2-4-16-16z"/>
</svg>
