<?xml version="1.0" encoding="UTF-8"?>
<svg version="1.1" xmlns="http://www.w3.org/2000/svg" width="100" height="100">
<path d="M0 0 C8.92229299 -0.77961783 8.92229299 -0.77961783 12.9375 2.125 C13.9584375 3.548125 13.9584375 3.548125 15 5 C15.598125 5.825 16.19625 6.65 16.8125 7.5 C19.57986426 15.65644203 18.21805914 23.88773589 16 32 C16.94842773 31.97905273 17.89685547 31.95810547 18.87402344 31.93652344 C22.40016425 31.8682644 25.92560099 31.81816071 29.45214844 31.78027344 C30.97700085 31.76018401 32.50177648 31.73290684 34.02636719 31.69824219 C36.22089598 31.64960204 38.41440469 31.62700604 40.609375 31.609375 C41.92905273 31.58842773 43.24873047 31.56748047 44.60839844 31.54589844 C48 32 48 32 50.43310547 33.89941406 C52.6135846 36.82257431 52.44149172 38.60878854 52.2734375 42.125 C51.94519438 44.37580994 51.01313322 45.97373357 50 48 C50 49.32 50 50.64 50 52 C50 55.93813554 49.63291291 56.73417418 48 60 C47.95571559 61.35344237 47.96069412 62.7089039 48 64.0625 C48 68 48 68 46 71 C45.34 71 44.68 71 44 71 C44.04640625 71.60328125 44.0928125 72.2065625 44.140625 72.828125 C44.17671875 73.62734375 44.2128125 74.4265625 44.25 75.25 C44.29640625 76.03890625 44.3428125 76.8278125 44.390625 77.640625 C44 80 44 80 42.62890625 82.12304688 C38.51216939 85.06226242 34.4781908 84.49392554 29.546875 84.390625 C28.53151672 84.38496521 27.51615845 84.37930542 26.47003174 84.37347412 C23.22953999 84.35109753 19.9901571 84.30089755 16.75 84.25 C14.55209931 84.22993671 12.35418128 84.21168565 10.15625 84.1953125 C4.7704555 84.15122871 -0.61469303 84.08430373 -6 84 C-6.66 82.68 -7.32 81.36 -8 80 C-8.66 80 -9.32 80 -10 80 C-10 81.32 -10 82.64 -10 84 C-13.97915159 84.02886984 -17.95827653 84.04675406 -21.9375 84.0625 C-23.64196289 84.07506836 -23.64196289 84.07506836 -25.38085938 84.08789062 C-26.46044922 84.09111328 -27.54003906 84.09433594 -28.65234375 84.09765625 C-30.15269165 84.10551147 -30.15269165 84.10551147 -31.68334961 84.11352539 C-34 84 -34 84 -35 83 C-35.44715805 80.179758 -35.8380382 77.37150506 -36.19140625 74.5390625 C-36.30097153 73.67872406 -36.4105368 72.81838562 -36.52342224 71.93197632 C-36.75505728 70.10125191 -36.9844026 68.27023659 -37.21166992 66.43896484 C-37.55683327 63.67045214 -37.91367389 60.90362142 -38.27148438 58.13671875 C-39.37709515 49.40864953 -40.44954959 40.81936882 -40 32 C-35.74585377 31.97534378 -31.49174502 31.95716101 -27.23754883 31.94506836 C-25.78929927 31.94002899 -24.34105483 31.93319747 -22.89282227 31.92456055 C-20.81525412 31.91247753 -18.73775303 31.90676789 -16.66015625 31.90234375 C-15.40855713 31.89710693 -14.15695801 31.89187012 -12.86743164 31.88647461 C-10 32 -10 32 -9 33 C-2.42269665 21.86802645 0.2564503 12.95074009 0 0 Z M4 4 C4.04382812 4.99515625 4.08765625 5.9903125 4.1328125 7.015625 C4.25589018 19.40744628 0.44133566 30.94177027 -7 41 C-8.485 41.495 -8.485 41.495 -10 42 C-10 53.22 -10 64.44 -10 76 C-8.02 76 -6.04 76 -4 76 C-3.34 77.32 -2.68 78.64 -2 80 C3.35683849 80.04941382 8.7135445 80.08572607 14.07055664 80.10986328 C15.89317129 80.11992491 17.71576979 80.1335756 19.53833008 80.15087891 C22.15710435 80.17512021 24.77566531 80.18648138 27.39453125 80.1953125 C28.61811089 80.21079636 28.61811089 80.21079636 29.8664093 80.22659302 C33.77130756 80.2273686 35.67524008 80.21650661 39 78 C38.67 76.35 38.34 74.7 38 73 C36.68 72.67 35.36 72.34 34 72 C34 70.68 34 69.36 34 68 C34.928125 68.04125 35.85625 68.0825 36.8125 68.125 C40.15809719 68.27136339 40.15809719 68.27136339 43 66 C42.67 64.35 42.34 62.7 42 61 C40.68 60.67 39.36 60.34 38 60 C38 58.68 38 57.36 38 56 C40.97 55.505 40.97 55.505 44 55 C44.33 53.35 44.66 51.7 45 50 C43.35 49.34 41.7 48.68 40 48 C40 46.68 40 45.36 40 44 C42.97 43.505 42.97 43.505 46 43 C46.33 41.35 46.66 39.7 47 38 C43.30841682 35.53894455 40.53376446 35.74424207 36.26953125 35.8046875 C35.51911057 35.8075174 34.76868988 35.81034729 33.99552917 35.81326294 C31.60102325 35.82444938 29.20689269 35.84955072 26.8125 35.875 C25.18815645 35.88503181 23.56380703 35.89415731 21.93945312 35.90234375 C17.959491 35.92438363 13.97980912 35.9589026 10 36 C10.31831787 34.68696899 10.31831787 34.68696899 10.64306641 33.34741211 C10.91812012 32.18991455 11.19317383 31.03241699 11.4765625 29.83984375 C11.88769287 28.12462524 11.88769287 28.12462524 12.30712891 26.37475586 C13.76133318 19.291787 14.10352439 13.23127778 10 7 C8.62493901 5.12109566 8.62493901 5.12109566 7 4 C6.01 4 5.02 4 4 4 Z M-35 36 C-34.38023929 46.03359971 -33.32046272 55.92106816 -31.9375 65.875 C-31.7489426 67.25645501 -31.56078978 68.63796531 -31.37304688 70.01953125 C-30.91931541 73.34689531 -30.46022617 76.67352804 -30 80 C-24.72 80 -19.44 80 -14 80 C-14 65.48 -14 50.96 -14 36 C-20.93 36 -27.86 36 -35 36 Z " fill="#000000" transform="translate(44,6)"/>
<path d="M0 0 C1.98 0 3.96 0 6 0 C6 1.98 6 3.96 6 6 C4.02 6 2.04 6 0 6 C0 4.02 0 2.04 0 0 Z " fill="#000000" transform="translate(20,76)"/>
</svg>
