<?xml version="1.0" encoding="UTF-8"?>
<svg xmlns="http://www.w3.org/2000/svg" version="1.1" viewBox="0 0 595.28 300">
  <defs>
    <style>
      .cls-1 {
        fill: #fff;
      }

      .cls-2 {
        fill: #fff;
      }

      .cls-3 {
        fill: #fff;
      }

      .cls-4 {
        fill: #fff;
      }
    </style>
  </defs>
  <!-- Generator: Adobe Illustrator 28.6.0, SVG Export Plug-In . SVG Version: 1.2.0 Build 709)  -->
  <g>
    <g id="Capa_1">
      <g>
        <path class="cls-1" d="M63.53,83.68H4.72v32.28c10.12.79,20.59.09,30.83.26,9.15-14.57,16.54-22.1,27.97-26.81"/>
        <path class="cls-1" d="M321.26,155.55l-6.98-19.51-3.43-10.14c-1.88.03-3.93.05-6.14.05-1.27,0-3.28-.02-6.04-.05-.68,1.46-1.2,2.58-1.58,3.36l-1.29,2.65-12.16,23.69-1.95,3.5c2.65-.03,4.57-.05,5.77-.05.66,0,2.45.02,5.37.05,1.46-3.44,2.87-6.58,4.23-9.44l2.68-6.61c-.02-.15.25-.63.31-.78l-.15.31,1.69-3.59c.72-1.52,1.6-3.47,2.63-5.85.17.57,1.11,3.57,2.83,8.96.03.15.29.87.31.96.44,1.85.55,1.87.64,2.69.48,1.73,1.62,6.7,1.41,4.93-.01-.1.04.25.01.51,1.03,2.97,1.86,5.62,2.45,7.91,2.56-.03,4.5-.05,5.81-.05.58,0,2.23.02,4.94.05l-1.36-3.55Z"/>
        <path class="cls-1" d="M235.67,134.81h14.09v-8.87c-6.46.04-13.32-.86-19.18,2.06-10.37,5.42-3.77,19.29,5.1,23.22v-16.41ZM230.92,159.04c-1.86-1.74-3.72-3.49-5.51-5.17v5.17h5.51Z"/>
        <g>
          <path class="cls-1" d="M251.07,159.11c.3-2.84.54-5.4.72-7.68.17-2.28.33-4.92.45-7.92.13-3,.22-6.17.29-9.51.06-3.33.1-5.99.1-7.96,1.99.05,3.59.07,4.82.07s2.82-.04,4.65-.11c1.83-.07,3.61-.11,5.34-.11,2.04,0,3.85.08,5.44.24,1.19.11,2.28.35,3.26.7.98.36,1.8.79,2.47,1.3s1.22,1.08,1.67,1.71c.45.63.79,1.37,1.04,2.22.25.85.37,1.76.37,2.72,0,1.08-.14,2.1-.41,3.04-.27.94-.7,1.83-1.28,2.66-.58.83-1.31,1.55-2.2,2.16s-2.12,1.22-3.71,1.85l1.24,3.08c.35.86.72,1.73,1.12,2.62l3.2,7.1c.14.31.4.91.76,1.82-2.62-.03-4.39-.05-5.29-.05-1.14,0-3.02.02-5.63.05-.25-.84-.72-2.4-1.38-4.67-.27-.95-.5-1.69-.69-2.2-.38-1.15-.95-2.75-1.7-4.82l-2.46-6.85c.86.16,1.7.24,2.53.24,1.16,0,2.21-.18,3.16-.53.95-.35,1.66-.9,2.15-1.65.48-.74.73-1.53.73-2.35,0-.69-.18-1.3-.55-1.83-.37-.52-.94-.92-1.73-1.17-.79-.26-2-.39-3.64-.39-.56,0-1.13.01-1.73.04s-1.29.04-2.09.06c-.2,3.31-.38,7.35-.54,12.11-.16,4.76-.26,9.44-.31,14.02-2.66-.03-4.39-.05-5.18-.05-.92,0-2.59.02-4.99.05Z"/>
          <path class="cls-1" d="M325.15,159.11l.48-5.09.93-17.24.26-6.95v-3.78c2.47.03,4.65.05,6.55.05,1.35,0,3.26-.02,5.71-.05l10.18,18.8,1.4,2.76c.18-2.71.36-6.52.55-11.41.19-4.89.28-8.28.28-10.15,1.95.03,3.52.05,4.7.05.54,0,2.1-.02,4.67-.05l-.57,7.22-1.07,20.05-.14,5.79c-2.07-.03-4-.05-5.8-.05-1.5,0-3.57.02-6.21.05-.83-1.58-1.44-2.73-1.83-3.44l-4-6.91c-1.32-2.26-2.53-4.43-3.65-6.49-.73-1.31-1.48-2.75-2.26-4.31l-.51,11.48-.24,9.67c-1.97-.03-3.47-.05-4.5-.05-.87,0-2.51.02-4.91.05Z"/>
          <path class="cls-1" d="M364.94,158.6c-.21-3.44-.45-6.19-.72-8.26,1.78.81,3.37,1.37,4.77,1.68,1.39.31,2.62.47,3.67.47,1.39,0,2.49-.21,3.31-.62.82-.41,1.23-1.02,1.23-1.83,0-.27-.04-.54-.12-.79-.08-.25-.23-.53-.45-.85-.22-.31-.54-.66-.96-1.03l-4.49-3.97c-1.05-.9-1.78-1.56-2.2-1.96-.84-.82-1.5-1.59-1.97-2.3-.47-.71-.81-1.43-1.03-2.17-.22-.73-.32-1.51-.32-2.34,0-.98.17-1.95.51-2.89.34-.94.85-1.83,1.54-2.65.68-.82,1.59-1.53,2.72-2.13,1.13-.6,2.34-1.01,3.63-1.22,1.29-.22,2.62-.33,3.98-.33,2.69,0,5.61.31,8.78.94.05,1.11.1,2.14.17,3.06.06.93.21,2.56.45,4.88-1.46-.6-2.8-1.01-4.01-1.25-1.21-.23-2.25-.35-3.13-.35-1.24,0-2.27.23-3.09.7-.82.47-1.23,1.05-1.23,1.74,0,.32.06.64.19.94.13.31.37.67.72,1.08.35.41.81.86,1.38,1.36.57.49,1.47,1.22,2.7,2.19l1.72,1.38c.51.42,1.06.93,1.65,1.53.59.6,1.1,1.19,1.53,1.77s.76,1.11.99,1.6c.23.48.4.97.51,1.47.11.49.17,1.02.17,1.59,0,1.45-.34,2.84-1.03,4.15-.68,1.32-1.65,2.4-2.91,3.25-1.26.85-2.64,1.44-4.14,1.78-1.5.34-3.09.51-4.76.51-2.58,0-5.83-.38-9.76-1.14Z"/>
          <path class="cls-1" d="M392.33,159.11l.47-6.2.62-12.11.26-8.57c.02-.92.02-1.84.02-2.76,0-.69,0-1.83-.02-3.41,2.1.05,3.79.07,5.06.07s2.9-.04,5.04-.11c2.13-.07,3.94-.11,5.42-.11,2.13,0,3.71.14,4.74.41,1.03.27,1.95.71,2.78,1.3.83.59,1.51,1.28,2.05,2.07.54.79.95,1.69,1.22,2.7.27,1.01.41,2.04.41,3.09,0,2.16-.52,4.14-1.55,5.93s-2.49,3.13-4.37,4.02c-1.88.89-3.98,1.33-6.32,1.33-.86,0-1.85-.1-2.98-.29-.13-.74-.37-1.85-.72-3.32-.35-1.47-.64-2.56-.86-3.27.7.15,1.43.22,2.19.22,1.61,0,2.8-.39,3.59-1.17.79-.78,1.18-1.74,1.18-2.87,0-.55-.09-1.04-.26-1.47-.18-.43-.45-.78-.83-1.05-.38-.27-.8-.45-1.26-.53-.46-.08-.99-.12-1.57-.12s-1.17.02-1.79.05l-2,.15c-.2,3.12-.36,6.58-.47,10.39-.2,6.94-.31,11.11-.31,12.5v3.15l-4.75-.05c-.67,0-2.32.02-4.97.05Z"/>
          <path class="cls-1" d="M443.12,125.42c2.54,0,4.99.35,7.35,1.04,2.35.69,4.41,1.8,6.18,3.33,1.77,1.53,3.09,3.28,3.96,5.27.87,1.99,1.31,4.27,1.31,6.85,0,2.71-.48,5.2-1.44,7.47-.96,2.27-2.35,4.19-4.16,5.78-1.81,1.58-3.98,2.74-6.49,3.48-2.51.73-5.13,1.1-7.85,1.1s-5.26-.36-7.73-1.08c-2.46-.72-4.61-1.88-6.43-3.49-1.82-1.61-3.11-3.39-3.88-5.36-.76-1.97-1.15-4.16-1.15-6.56,0-3.54.81-6.64,2.42-9.31,1.61-2.67,4.01-4.76,7.18-6.26,3.17-1.5,6.75-2.25,10.72-2.25ZM442.69,132.71c-1.83,0-3.48.46-4.96,1.37-1.48.91-2.62,2.18-3.41,3.8s-1.19,3.36-1.19,5.22c0,1.71.36,3.28,1.09,4.7.72,1.42,1.82,2.53,3.3,3.33,1.48.8,3.05,1.2,4.7,1.2,1.77,0,3.38-.45,4.85-1.34,1.47-.9,2.59-2.16,3.36-3.78.77-1.62,1.16-3.32,1.16-5.1s-.36-3.32-1.07-4.78c-.72-1.46-1.77-2.6-3.15-3.4-1.38-.81-2.94-1.21-4.68-1.21Z"/>
          <path class="cls-1" d="M465.69,159.11c.3-2.84.54-5.4.72-7.68.18-2.28.33-4.92.45-7.92.13-3,.22-6.17.29-9.51.06-3.33.1-5.99.1-7.96,1.99.05,3.59.07,4.82.07s2.82-.04,4.65-.11c1.83-.07,3.61-.11,5.34-.11,2.04,0,3.85.08,5.44.24,1.19.11,2.28.35,3.26.7.98.36,1.8.79,2.47,1.3.67.51,1.22,1.08,1.67,1.71.45.63.79,1.37,1.04,2.22.25.85.37,1.76.37,2.72,0,1.08-.14,2.1-.41,3.04-.27.94-.7,1.83-1.28,2.66-.58.83-1.31,1.55-2.19,2.16s-2.12,1.22-3.71,1.85l1.24,3.08c.35.86.72,1.73,1.12,2.62l3.2,7.1c.14.31.4.91.76,1.82-2.62-.03-4.39-.05-5.29-.05-1.14,0-3.02.02-5.63.05-.26-.84-.72-2.4-1.39-4.67-.27-.95-.5-1.69-.69-2.2-.38-1.15-.95-2.75-1.7-4.82l-2.46-6.85c.86.16,1.7.24,2.53.24,1.16,0,2.21-.18,3.16-.53.95-.35,1.66-.9,2.15-1.65.48-.74.73-1.53.73-2.35,0-.69-.18-1.3-.55-1.83-.37-.52-.94-.92-1.73-1.17-.79-.26-2-.39-3.64-.39-.56,0-1.13.01-1.73.04s-1.29.04-2.09.06c-.2,3.31-.38,7.35-.54,12.11-.16,4.76-.26,9.44-.31,14.02-2.66-.03-4.39-.05-5.18-.05-.92,0-2.59.02-4.99.05Z"/>
          <path class="cls-1" d="M507.23,159.11c.79-7.85,1.26-16.48,1.42-25.91l-10.15.27.12-2.69c.06-1.44.11-3.01.14-4.72,4.52.03,9.78.05,15.79.05l5.89-.02h5.72l3.1-.02-.14,2.37c-.06,1.27-.11,2.32-.13,3.16s-.04,1.46-.04,1.88c-3.4-.18-6.21-.27-8.41-.27h-1.67c-.24,2.85-.42,5.49-.55,7.9-.18,3.46-.31,6.83-.41,10.09-.1,3.26-.14,5.9-.14,7.92-2.61-.03-4.29-.05-5.05-.05-.68,0-2.51.02-5.48.05Z"/>
          <path class="cls-1" d="M530.96,159.11c.4-4.17.69-7.65.87-10.46.18-2.81.37-6.54.55-11.2.18-4.66.27-7.75.27-9.26l-.02-2.13c3.75.03,8.29.05,13.62.05,4.91,0,9.25-.02,13-.05l-.05.8c-.02.19-.06.89-.12,2.1l-.14,2.63c-.03.56-.05,1.13-.05,1.71-3.07-.13-5.65-.19-7.73-.19-2.29,0-3.84,0-4.64.01s-2.06.04-3.76.11l-.29,5.57c1.88.05,4.06.07,6.56.07.89,0,3.26-.06,7.11-.17-.16,2.07-.31,4.53-.45,7.39-2.75-.03-4.86-.05-6.34-.05-2.19,0-4.65.06-7.37.17l-.28,5.89h2.74c.81,0,2.49-.02,5.03-.07l4.94-.12c.73-.02,1.95-.08,3.67-.19-.19,2.39-.35,4.86-.48,7.41-3.88-.03-8.14-.05-12.76-.05l-10.5.02-3.39.02Z"/>
          <path class="cls-1" d="M563.89,158.45c-.21-3.44-.45-6.19-.72-8.26,1.78.81,3.37,1.37,4.77,1.68,1.39.31,2.62.47,3.67.47,1.39,0,2.49-.21,3.31-.62.82-.41,1.23-1.02,1.23-1.83,0-.27-.04-.54-.12-.79-.08-.25-.23-.53-.45-.85-.22-.31-.54-.66-.96-1.03l-4.49-3.97c-1.05-.9-1.78-1.56-2.2-1.96-.84-.82-1.5-1.59-1.97-2.3-.47-.71-.81-1.43-1.03-2.17-.22-.73-.32-1.51-.32-2.34,0-.98.17-1.95.51-2.89.34-.94.85-1.83,1.54-2.65.68-.82,1.59-1.53,2.72-2.13,1.13-.6,2.34-1.01,3.63-1.22,1.29-.22,2.62-.33,3.98-.33,2.69,0,5.61.31,8.78.94.05,1.11.1,2.14.17,3.06.06.93.21,2.56.45,4.88-1.46-.6-2.8-1.01-4.01-1.25-1.21-.23-2.25-.35-3.13-.35-1.24,0-2.27.23-3.09.7-.82.47-1.23,1.05-1.23,1.74,0,.32.06.64.19.94.13.31.37.67.72,1.08.35.41.81.86,1.38,1.36.57.49,1.47,1.22,2.7,2.19l1.72,1.38c.51.42,1.06.93,1.65,1.53.59.6,1.1,1.19,1.53,1.77s.76,1.11.99,1.6c.23.48.4.97.51,1.47.11.49.17,1.02.17,1.59,0,1.45-.34,2.84-1.03,4.15-.68,1.32-1.65,2.4-2.91,3.25-1.26.85-2.64,1.44-4.14,1.78-1.5.34-3.09.51-4.76.51-2.58,0-5.83-.38-9.76-1.14Z"/>
        </g>
        <path class="cls-2" d="M409.4,199.34l-8.54-21.86-4.2-11.37c-2.3.04-4.81.05-7.51.05-1.55,0-4.02-.02-7.39-.05-.83,1.64-1.47,2.89-1.93,3.76l-1.58,2.97-14.89,26.55-2.39,3.92c3.25-.04,5.6-.05,7.06-.05.81,0,3,.02,6.57.05,1.78-3.85,3.51-7.38,5.18-10.57l3.28-7.41c-.02-.17.31-.71.38-.88l-.18.35,2.07-4.03c.88-1.7,1.95-3.89,3.22-6.56.2.63,1.36,4,3.46,10.04.04.17.36.97.38,1.08.54,2.08.68,2.1.79,3.01.59,1.94,1.98,7.5,1.73,5.53-.01-.11.04.29.01.57,1.27,3.33,2.28,6.3,3,8.86,3.13-.04,5.5-.05,7.12-.05.71,0,2.73.02,6.05.05l-1.67-3.98Z"/>
        <g>
          <path class="cls-1" d="M237.4,203.32c.47-4.43.81-8.04,1.02-10.84.4-5.11.69-10.18.89-15.22.2-5.04.3-9.17.3-12.38,2.56.04,4.82.06,6.8.06,1.34,0,3.25-.02,5.75-.06l-.68,10.19-.85,15.94-.11,3.91c3.24.06,5.34.08,6.32.08,4.95,0,8.7-.07,11.24-.2l-.62,8.5c-4.95-.04-9.66-.06-14.14-.06-6.06,0-11.36.02-15.92.06Z"/>
          <path class="cls-1" d="M294.86,164.15c3.01,0,5.91.4,8.69,1.21,2.78.81,5.22,2.1,7.31,3.87,2.09,1.77,3.65,3.82,4.68,6.12,1.03,2.31,1.55,4.97,1.55,7.97,0,3.15-.57,6.05-1.71,8.69-1.14,2.64-2.78,4.88-4.92,6.72-2.14,1.84-4.7,3.19-7.68,4.04-2.97.85-6.07,1.28-9.29,1.28s-6.23-.42-9.14-1.25c-2.92-.83-5.45-2.19-7.61-4.05-2.15-1.87-3.68-3.95-4.59-6.24-.9-2.29-1.35-4.83-1.35-7.63,0-4.11.96-7.72,2.86-10.83,1.91-3.11,4.74-5.53,8.49-7.28,3.75-1.75,7.98-2.62,12.69-2.62ZM294.35,172.62c-2.16,0-4.12.53-5.87,1.59-1.75,1.06-3.1,2.53-4.04,4.42-.94,1.89-1.41,3.91-1.41,6.07,0,1.99.43,3.81,1.28,5.46.86,1.65,2.16,2.94,3.91,3.87s3.6,1.39,5.56,1.39c2.09,0,4-.52,5.74-1.56,1.74-1.04,3.07-2.51,3.98-4.39s1.37-3.86,1.37-5.93-.42-3.86-1.27-5.56c-.85-1.7-2.09-3.02-3.73-3.96-1.64-.94-3.48-1.41-5.53-1.41Z"/>
          <path class="cls-1" d="M321.27,202.73c-.24-4-.53-7.2-.85-9.6,2.11.94,3.99,1.59,5.64,1.96,1.65.37,3.1.55,4.34.55,1.64,0,2.94-.24,3.92-.72.97-.48,1.46-1.19,1.46-2.13,0-.32-.05-.62-.14-.92-.09-.29-.27-.62-.54-.99-.26-.37-.64-.76-1.13-1.2l-5.32-4.62c-1.24-1.05-2.11-1.81-2.6-2.28-1-.96-1.78-1.85-2.33-2.68-.56-.83-.96-1.67-1.22-2.52-.25-.85-.38-1.76-.38-2.72,0-1.14.2-2.27.61-3.36.4-1.1,1.01-2.13,1.82-3.08.81-.96,1.88-1.78,3.22-2.48,1.34-.69,2.77-1.17,4.29-1.42,1.52-.25,3.09-.38,4.71-.38,3.18,0,6.64.37,10.39,1.1.06,1.3.12,2.48.2,3.56.07,1.08.25,2.97.54,5.67-1.73-.69-3.31-1.18-4.74-1.45-1.43-.27-2.66-.41-3.7-.41-1.47,0-2.69.27-3.65.82-.97.54-1.45,1.22-1.45,2.03,0,.38.08.74.23,1.1.15.36.43.77.85,1.25.41.48.96,1,1.64,1.58.68.57,1.74,1.42,3.19,2.55l2.03,1.6c.6.49,1.25,1.08,1.95,1.77.7.69,1.3,1.38,1.81,2.06s.9,1.3,1.17,1.86c.27.56.48,1.13.61,1.7.13.57.2,1.19.2,1.84,0,1.69-.4,3.3-1.21,4.83-.81,1.53-1.96,2.79-3.44,3.77-1.49.99-3.12,1.68-4.9,2.07-1.78.39-3.65.59-5.63.59-3.05,0-6.9-.44-11.54-1.32Z"/>
          <path class="cls-1" d="M415.08,203.32l.56-5.91,1.1-20.05.31-8.08v-4.39c2.92.04,5.5.06,7.75.06,1.6,0,3.85-.02,6.76-.06l12.05,21.86,1.66,3.21c.21-3.15.43-7.58.65-13.27.22-5.69.33-9.62.33-11.8,2.31.04,4.16.06,5.55.06.64,0,2.48-.02,5.53-.06l-.68,8.39-1.27,23.32-.17,6.73c-2.45-.04-4.74-.06-6.86-.06-1.77,0-4.22.02-7.34.06-.98-1.84-1.7-3.17-2.17-4l-4.74-8.03c-1.56-2.63-3-5.15-4.31-7.55-.86-1.52-1.76-3.19-2.68-5.01l-.61,13.35-.29,11.24c-2.33-.04-4.11-.06-5.33-.06-1.03,0-2.97.02-5.81.06Z"/>
          <path class="cls-1" d="M462.55,203.32c.42-4.28.7-7.71.85-10.28.23-3.83.45-8.79.68-14.87.17-4.66.26-7.99.26-10v-3.29c2.2.06,4.1.08,5.7.08s3.56-.04,6.07-.13c2.5-.08,4.85-.13,7.05-.13,2.52,0,4.73.15,6.63.45,1.9.3,3.67.92,5.32,1.86,1.65.94,3.02,2.17,4.13,3.69,1.11,1.52,1.96,3.3,2.54,5.34.58,2.04.88,4.14.88,6.29s-.23,4.16-.68,6.12c-.45,1.96-1.08,3.73-1.89,5.31-.81,1.58-1.75,2.93-2.84,4.07-1.08,1.14-2.32,2.11-3.71,2.91-1.03.6-2.08,1.07-3.13,1.41-1.05.34-2.49.61-4.32.82-2.03.23-4.34.34-6.91.34l-11.4-.08c-1.07,0-2.81.03-5.22.08ZM474.75,194.84c1.03.09,2.11.14,3.24.14,1.92,0,3.63-.17,5.13-.51,1.5-.34,2.82-1.06,3.96-2.17,1.14-1.11,1.98-2.53,2.52-4.27.55-1.74.82-3.51.82-5.34,0-2.23-.4-4.12-1.21-5.65s-1.89-2.6-3.23-3.2c-1.35-.6-3.18-.9-5.49-.9-1.35,0-2.95.06-4.8.17l-.95,21.71Z"/>
          <path class="cls-1" d="M507.17,203.32c.47-4.84.82-8.9,1.03-12.16.22-3.27.43-7.61.65-13.02.22-5.42.33-9.01.33-10.77l-.03-2.48c4.44.04,9.81.06,16.11.06,5.81,0,10.94-.02,15.38-.06l-.06.93c-.02.22-.07,1.04-.14,2.44l-.17,3.06c-.04.66-.06,1.32-.06,1.99-3.63-.15-6.68-.23-9.14-.23-2.71,0-4.54,0-5.49.01s-2.43.05-4.45.13l-.34,6.48c2.22.06,4.81.08,7.76.08,1.05,0,3.86-.07,8.41-.2-.19,2.4-.37,5.27-.54,8.59-3.25-.04-5.75-.06-7.5-.06-2.6,0-5.5.07-8.72.2l-.34,6.84h3.24c.96,0,2.94-.03,5.95-.08l5.84-.14c.87-.02,2.31-.09,4.34-.23-.23,2.78-.41,5.65-.56,8.62-4.59-.04-9.62-.06-15.1-.06l-12.42.03-4.01.03Z"/>
          <path class="cls-1" d="M544.96,202.73c-.24-4-.53-7.2-.85-9.6,2.11.94,3.99,1.59,5.64,1.96,1.65.37,3.1.55,4.34.55,1.64,0,2.94-.24,3.92-.72.97-.48,1.46-1.19,1.46-2.13,0-.32-.05-.62-.14-.92-.09-.29-.27-.62-.54-.99-.26-.37-.64-.76-1.13-1.2l-5.32-4.62c-1.25-1.05-2.11-1.81-2.6-2.28-1-.96-1.78-1.85-2.33-2.68-.56-.83-.96-1.67-1.22-2.52-.25-.85-.38-1.76-.38-2.72,0-1.14.2-2.27.61-3.36.4-1.1,1.01-2.13,1.82-3.08.81-.96,1.88-1.78,3.22-2.48,1.34-.69,2.77-1.17,4.29-1.42,1.52-.25,3.09-.38,4.71-.38,3.18,0,6.64.37,10.39,1.1.06,1.3.12,2.48.2,3.56.07,1.08.25,2.97.54,5.67-1.73-.69-3.31-1.18-4.74-1.45-1.43-.27-2.66-.41-3.7-.41-1.47,0-2.69.27-3.65.82-.97.54-1.45,1.22-1.45,2.03,0,.38.07.74.23,1.1.15.36.43.77.85,1.25.41.48.96,1,1.64,1.58.68.57,1.74,1.42,3.19,2.55l2.03,1.6c.6.49,1.25,1.08,1.95,1.77.7.69,1.3,1.38,1.81,2.06s.9,1.3,1.17,1.86c.27.56.48,1.13.61,1.7.13.57.2,1.19.2,1.84,0,1.69-.41,3.3-1.21,4.83-.81,1.53-1.96,2.79-3.44,3.77-1.49.99-3.12,1.68-4.9,2.07-1.78.39-3.65.59-5.63.59-3.05,0-6.9-.44-11.54-1.32Z"/>
        </g>
        <path class="cls-4" d="M114.13,204.97c-7.71-4.33-15.42-8.67-23.14-12.96-.4-.22-.99-.39-1.32-.13-2.91,2.19-5.79,4.48-8.92,6.93,2.07,1.88,3.89,3.72,5.85,5.23,1.04.8,2.28,1.43,3.46,1.48,7.88.36,15.77.55,23.66.79.6.02,1.21.04,1.81.06-.44-.84-.91-1.12-1.39-1.39Z"/>
        <path class="cls-2" d="M136.52,84.28c-2.77,5.19-4.91,9.17-6.45,11.94l-5.29,9.43-44.03,67.24,10.91,5.72c11.36,4.79,13.4,5.21,16.8,6.5,2.81,1.07,4.31,1.61,10.85,3.16,1.12-3.51,3.6-6.98,5.5-11.09,1.39-2.68,1.92-4.16,3.57-7.77l11.03-23.54c-.06-.55,1.04-2.26,1.29-2.79l-.6,1.12,6.92-12.79c2.95-5.41,6.54-12.35,10.79-20.83.62,2.04,4.12,12.86,10.48,32.31.12.54,1.08,3.12,1.16,3.46,1.61,6.68,2.04,6.75,2.33,9.69,1.53,5.42,4.84,19.57,5.23,19.08,0,.18,0,.35-.03.52,3.85,10.73,6.91,20.29,9.06,28.53,10.08.04,17.71.1,22.9.18,2.29.04,8.77.2,19.46.48l-5.1-12.82-26.05-70.4-12.77-36.59c-7.41,0-15.46-.07-24.17-.2-5-.08-12.93-.26-23.79-.55"/>
        <path class="cls-4" d="M55.97,158.73c.06-.02.11-.11.12-.12-1.87-4.18-3.74-8.18-5.45-12.24-1.4-3.32-1.77-3.58-5.6-2.35,1.14,3.57,2.19,7.16,3.44,10.68,2,5.66,2.05,5.64,7.49,4.03Z"/>
        <path class="cls-4" d="M45.91,121.04c.36-3.54.63-7.08.94-10.62-.15-.06-.29-.12-.44-.18-.68,3.62-1.38,7.24-1.98,10.88-.06.38.48.88.74,1.32.26-.47.7-.91.74-1.4Z"/>
        <path class="cls-1" d="M31.24,198.49c6.19.19,12.17.38,17.87.56-5.8-7.02-11.61-14.04-17.21-20.8-.21,6.31-.43,13.21-.66,20.25Z"/>
        <path class="cls-4" d="M44.09,136.07c.19,3.22.32,3.23,3.42,2.7-.48-4.38-.9-8.6-1.46-12.79-.07-.53-.82-.95-1.25-1.42-.31.51-.9,1.01-.9,1.52-.02,3.33-.01,6.67.18,10Z"/>
        <path class="cls-4" d="M60.1,163.49c-.31-.39-1.04-.66-1.52-.58-1.79.29-3.56.75-6.12,1.32,3.35,4.79,6.27,9.01,9.27,13.18.32.44,1.21.87,1.62.7,2.37-.95,4.68-2.08,6.21-2.78-3.16-3.97-6.28-7.93-9.47-11.84Z"/>
        <path class="cls-1" d="M82.77,158.72c.48-14.79.96-29.36,1.44-44.21,8.3.26,16.48.51,24.6.77l18.66-31.92c-.56-.08-.97-.18-1.37-.19-9.39-.3-18.77-.84-28.16-.81-9.73.04-19.31,1.6-28.2,6.73-8.89,5.13-15.48,12.82-16.18,24.6-1.32,22.31,5.3,40.96,20.82,54.8.27.24,1.45.8,1.73,1.04"/>
        <path class="cls-4" d="M74.5,178.83c-.45-.33-1.18-.67-1.6-.48-2.67,1.23-5.3,2.61-8.6,4.27,4.32,4.17,8.18,7.93,12.09,11.61.37.34,1.19.47,1.63.24,3.36-1.77,6.67-3.66,10.17-5.6-4.87-3.58-9.27-6.83-13.7-10.04Z"/>
        <path class="cls-3" d="M246.23,160.04c-2.52-1.16-5.03-2.32-7.56-3.48-.13-.06-.32-.1-.43-.04-.95.58-1.88,1.19-2.9,1.84.68.5,1.27.99,1.91,1.4.34.22.75.38,1.13.4,2.57.1,5.14.16,7.71.23.2,0,.39.01.59.02-.14-.22-.3-.3-.45-.37Z"/>
        <path class="cls-3" d="M226.56,147.08s.03-.03.04-.03c-.62-1.12-1.23-2.18-1.79-3.27-.46-.89-.58-.96-1.83-.63.38.95.72,1.91,1.13,2.85.66,1.51.68,1.5,2.45,1.08Z"/>
        <path class="cls-3" d="M223.23,137.02c.11-.94.2-1.89.29-2.83-.05-.02-.1-.03-.14-.05-.22.97-.44,1.93-.63,2.9-.02.1.16.23.24.35.08-.12.23-.24.24-.37Z"/>
        <path class="cls-3" d="M222.66,141.02c.07.86.11.86,1.12.72-.16-1.17-.31-2.29-.49-3.41-.02-.14-.27-.25-.41-.38-.1.13-.29.27-.29.4,0,.89,0,1.78.07,2.67Z"/>
        <path class="cls-3" d="M227.91,148.35c-.1-.1-.34-.18-.5-.16-.58.08-1.16.2-1.99.35,1.1,1.28,2.06,2.41,3.04,3.52.1.12.39.23.53.19.77-.25,1.52-.55,2.02-.74-1.03-1.06-2.06-2.12-3.1-3.17Z"/>
        <path class="cls-3" d="M232.62,152.45c-.15-.09-.39-.18-.52-.13-.87.33-1.72.69-2.8,1.13,1.41,1.12,2.67,2.12,3.96,3.11.12.09.39.13.53.06,1.09-.47,2.17-.97,3.31-1.48-1.59-.96-3.03-1.83-4.48-2.69Z"/>
        <path class="cls-1" d="M229.95,125.95h-18.66v8.8c3.21.22,6.53.03,9.79.07,2.9-3.97,5.25-6.02,8.88-7.31"/>
      </g>
    </g>
  </g>
</svg>