<?xml version="1.0" encoding="UTF-8"?>
<svg version="1.1" viewBox="0 0 1527 915" width="1280" height="1280" xmlns="http://www.w3.org/2000/svg">
<path transform="translate(899,14)" d="m0 0h26l117 3 61 1 124 1 3 6 18 57 18 56 18 57 19 59 15 47 33 98 17 50 29 86 19 56 26 77 21 62 26 77 16 45 21 57 1 6h-35l-73-2-54-1-127-1-3-8-13-51-19-66-14-45-13-41-1-7-3-7-12-48-17-73-3-12-4-24-11-44-4-15-8-26-47-158-20-68v-4h-2l-2 6-19 41-32 68-12 24-11 23-37 74-9 19-5 14-72 168-18 44-16 35-18 36-8 20-2 6-17-4-34-10-28-11-43-17-35-15-35-16-17-10-28-16-26-15-1-4 17-28 19-32 9-15 19-32 17-28 19-32 17-28 17-29 17-28 19-32 17-28 17-29 17-28 19-32 17-28 17-29 17-28 11-19 24-47 18-35 15-30 11-23z" fill="#3B6D38"/>
<path transform="translate(606)" d="m0 0h96l125 5 12 2-8 16-17 32-12 22-12 23-12 22-18 34-30 56-17 32-2 2h-28l-117-4-23-1v22l-9 302-2 9-15 27-13 23-14 25-3 3-11-7-20-20-7-8-11-13-10-13-13-18-12-19-12-21-14-28-13-32-11-34-9-36-6-34-4-34-2-30v-61l2-28 4-23 5-19 7-19 10-21 12-19 13-16 12-13 7-7 11-9 14-11 15-10 21-12 23-11 24-9 29-8 27-5 25-3z" fill="#3B6D38"/>
<path transform="translate(0,9)" d="m0 0h402v44l-16 8-18 10-21 14-13 10-13 11-15 14-14 15-9 11-13 16-12 17-20 30-13 21-13 22-1 1-64 1h-113l-33-2-1-1z" fill="#3B6D38"/>
<path transform="translate(465,716)" d="m0 0 7 1 9 6 17 14 14 11 16 13 14 11 17 14 10 8 1 3-17 10-26 16-27 16h-7l-6-4-14-15-13-13-7-8-12-12-7-8-10-10-7-8-10-10 1-4 26-14 18-10z" fill="#3B6D38"/>
<path transform="translate(185,716)" d="m0 0 5 5 12 15 14 19 13 17 16 21 14 19 14 18 14 19 14 18 2 5h-20l-89-3-13-1v-33l3-100z" fill="#3B6D38"/>
<path transform="translate(366,601)" d="m0 0 9 1 9 10 10 14 14 19 13 18 14 19 8 11-1 3-36 18-5 2-7-1-6-5-22-34-32-50-8-13v-2l18-5z" fill="#3B6D38"/>
<path transform="translate(291,455)" d="m0 0h8l5 3 4 5 9 21 11 28 17 41 6 15v3l-19 6-5 1h-9l-6-4-5-8-6-15-13-42-13-46v-3l11-4z" fill="#3B6D38"/>
<path transform="translate(273,315)" d="m0 0 4 2 5 6 2 10 9 87v2l-10 2h-8l-5-5-2-13-1-22v-60z" fill="#3B6D38"/>
<path transform="translate(284,208)" d="m0 0 4 1-1 21-5 60-5 10-5-5-2-6 13-78z" fill="#3B6D38"/>
</svg>
